<svg width="75" height="60" viewBox="0 0 75 60" fill="none" xmlns="http://www.w3.org/2000/svg">
<path d="M15.0015 48.5175V56.4712L11.4733 60H3.52447L14.9978 48.5175H15.0015ZM75 39.1313V47.0887L62.0944 60H59.9723V54.1613L75 39.1313ZM25.3125 37.5H49.6651C51.3124 37.5001 52.8994 38.12 54.1108 39.2364C55.3222 40.3529 56.0695 41.8842 56.2041 43.5263L56.2266 44.0625V60H18.7509V44.0625C18.751 42.4155 19.3702 40.8288 20.4857 39.6173C21.6012 38.4058 23.1314 37.658 24.7725 37.5225L25.3125 37.5ZM22.5791 24.06C22.8041 26.2313 23.4902 28.26 24.5401 30.06L0.00374961 54.6V46.6425L22.5791 24.06ZM74.9962 22.245V30.2063L59.9723 45.2438V44.0625L59.9573 43.4325C59.8584 41.7794 59.3606 40.1749 58.5062 38.7562L74.9925 22.245H74.9962ZM37.7081 0L0.00374961 37.725V29.7712L29.7593 0H37.7081ZM75 5.37V13.3312L53.7519 34.5938C52.7284 34.1499 51.6392 33.8763 50.5274 33.7837L49.6651 33.75H47.4154C48.704 32.6158 49.7883 31.2687 50.6212 29.7675L75 5.37ZM37.4981 11.25C40.4814 11.25 43.3424 12.4353 45.4519 14.545C47.5614 16.6548 48.7464 19.5163 48.7464 22.5C48.7464 25.4837 47.5614 28.3452 45.4519 30.455C43.3424 32.5647 40.4814 33.75 37.4981 33.75C34.5149 33.75 31.6538 32.5647 29.5444 30.455C27.4349 28.3452 26.2498 25.4837 26.2498 22.5C26.2498 19.5163 27.4349 16.6548 29.5444 14.545C31.6538 12.4353 34.5149 11.25 37.4981 11.25ZM20.8469 0L0 20.85V12.8925L12.8981 0H20.8469ZM71.453 0L52.1584 19.3088C51.7271 17.324 50.8952 15.4482 49.7138 13.7962L63.5005 0H71.4568H71.453ZM54.5881 0L45.0532 9.54C43.2162 8.46673 41.1706 7.79927 39.0541 7.5825L46.6393 0H54.5918H54.5881Z" fill="#315B7C"/>
</svg>
