<svg width="227" height="301" viewBox="0 0 227 301" fill="none" xmlns="http://www.w3.org/2000/svg">
<path style="mix-blend-mode:multiply" d="M61.4549 44.9193C83.1307 27.6475 122.093 40.2961 148.48 73.1707C174.867 106.045 178.687 146.697 157.011 163.969C135.335 181.241 96.3722 168.592 69.9852 135.717C43.5982 102.843 39.779 62.1911 61.4549 44.9193Z" fill="url(#paint0_radial_5199_4699)"/>
<path d="M87.5779 25.5647L185.369 57.7041L158.083 73.5499L87.5779 25.5647Z" fill="white"/>
<path d="M158.083 73.5499L152.222 108.124L87.5781 25.5647L158.083 73.5499Z" fill="#315B7C"/>
<path d="M152.222 108.124L146.162 81.5736L87.5782 25.5648L152.222 108.124Z" fill="#7E9AB0"/>
<path d="M87.5781 25.5651L116.145 107.403L146.162 81.574L87.5781 25.5651Z" fill="white"/>
<path d="M160.851 116.108C160.923 116.233 161.017 116.351 161.126 116.455C162.474 117.718 163.818 119.052 165.118 120.428C165.698 121.044 166.673 121.067 167.295 120.479C167.915 119.899 167.956 118.932 167.368 118.315C166.024 116.895 164.634 115.515 163.246 114.213C162.632 113.636 161.653 113.671 161.069 114.292C160.588 114.798 160.518 115.541 160.846 116.11L160.851 116.108Z" fill="white"/>
<path d="M93.7888 234.235C94.8892 236.14 96.1413 237.996 97.4984 239.741C98.0133 240.406 98.986 240.523 99.6575 239.999C100.332 239.48 100.462 238.517 99.9398 237.85C97.6209 234.872 95.6612 231.575 94.1803 228.155C93.8479 227.385 92.9397 227.034 92.1566 227.375C91.3735 227.716 91.0153 228.62 91.3503 229.395C92.0618 231.038 92.8835 232.666 93.7888 234.235ZM88.235 218.334C88.5395 218.861 89.1435 219.172 89.7927 219.075C90.6358 218.946 91.2207 218.164 91.1023 217.332C90.5615 213.574 90.5602 209.787 91.0923 206.082C91.2126 205.241 90.6268 204.475 89.7826 204.365C88.9384 204.254 88.1618 204.844 88.0389 205.68C87.4644 209.669 87.4695 213.743 88.0502 217.787C88.0781 217.986 88.1435 218.164 88.237 218.326L88.235 218.334ZM105.646 247.798C105.742 247.964 105.871 248.112 106.032 248.241C107.289 249.205 108.607 250.116 109.945 250.941C112.013 252.22 114.233 253.331 116.53 254.25C117.318 254.566 118.215 254.184 118.541 253.397C118.867 252.611 118.489 251.719 117.704 251.407C115.563 250.553 113.506 249.52 111.586 248.334C110.335 247.564 109.107 246.712 107.932 245.812C107.261 245.299 106.297 245.423 105.771 246.091C105.372 246.599 105.344 247.275 105.646 247.798ZM91.7222 195.486C91.8665 195.736 92.0836 195.949 92.3689 196.087C93.1261 196.458 94.0555 196.143 94.4338 195.382C96.0894 192.076 98.2876 188.975 100.963 186.16C101.55 185.544 101.525 184.571 100.911 183.994C100.297 183.418 99.3184 183.452 98.7317 184.069C95.8489 187.108 93.4713 190.461 91.6785 194.037C91.4368 194.516 91.4739 195.056 91.7196 195.481L91.7222 195.486ZM127.139 256.494C127.369 256.892 127.778 257.18 128.27 257.242C132.169 257.735 136.239 257.791 140.368 257.417C141.217 257.341 141.847 256.595 141.778 255.752C141.71 254.91 140.966 254.291 140.118 254.367C136.21 254.724 132.364 254.668 128.689 254.206C127.847 254.1 127.069 254.697 126.953 255.535C126.905 255.883 126.979 256.217 127.142 256.499L127.139 256.494ZM159.112 309.636C159.206 309.797 159.337 309.95 159.494 310.069C160.16 310.585 161.126 310.465 161.66 309.799C164.006 306.835 166.324 303.553 168.555 300.033C169.013 299.312 168.801 298.373 168.081 297.926C167.361 297.478 166.409 297.701 165.956 298.419C163.783 301.844 161.523 305.043 159.247 307.923C158.848 308.431 158.815 309.11 159.117 309.633L159.112 309.636ZM150.497 254.474C150.839 255.066 151.552 255.371 152.248 255.172C156.088 254.071 159.88 252.616 163.526 250.844C164.295 250.468 164.616 249.555 164.251 248.791C163.875 248.033 162.964 247.721 162.195 248.097C158.712 249.793 155.088 251.182 151.424 252.231C150.604 252.464 150.127 253.313 150.353 254.126C150.386 254.249 150.436 254.368 150.497 254.474ZM171.806 289.793C171.947 290.038 172.159 290.242 172.425 290.379C173.178 290.764 174.111 290.466 174.507 289.714C176.288 286.323 178.029 282.721 179.672 279.016C180.015 278.238 179.664 277.337 178.887 277.008C178.108 276.674 177.203 277.031 176.859 277.809C175.244 281.455 173.533 284.99 171.78 288.321C171.527 288.801 171.555 289.358 171.806 289.793ZM107.671 178.47C107.671 178.47 107.687 178.497 107.695 178.511C108.14 179.229 109.087 179.441 109.813 178.991C110.24 178.725 110.673 178.469 111.108 178.218C113.964 176.569 117.014 175.203 120.169 174.159C120.975 173.891 121.423 173.022 121.161 172.223C120.892 171.422 120.03 170.989 119.224 171.257C115.865 172.369 112.622 173.823 109.579 175.579C109.115 175.847 108.657 176.124 108.202 176.405C107.49 176.847 107.258 177.765 107.666 178.472L107.671 178.47ZM181.384 268.294C181.555 268.59 181.827 268.834 182.179 268.958C182.978 269.249 183.863 268.837 184.163 268.047C185.467 264.587 186.738 260.96 187.937 257.264L188.066 256.85C188.316 256.04 187.861 255.186 187.048 254.946C186.235 254.706 185.372 255.168 185.122 255.978L185.003 256.355C183.82 260.005 182.566 263.584 181.279 266.998C181.11 267.441 181.165 267.915 181.384 268.294ZM171.657 244.182C171.684 244.228 171.711 244.274 171.747 244.315C172.241 244.998 173.201 245.147 173.893 244.649C177.194 242.268 180.272 239.609 183.029 236.741C183.618 236.129 183.601 235.159 182.991 234.579C182.38 233.995 181.406 234.027 180.816 234.638C178.187 237.371 175.252 239.911 172.1 242.181C171.452 242.648 171.268 243.518 171.655 244.189L171.657 244.182ZM129.909 171.126C130.192 171.616 130.746 171.926 131.357 171.881C135.223 171.573 139.033 171.76 142.682 172.448C143.514 172.603 144.329 172.058 144.494 171.229C144.663 170.397 144.119 169.595 143.286 169.441C139.372 168.703 135.286 168.503 131.145 168.833C130.299 168.903 129.656 169.638 129.719 170.483C129.737 170.719 129.807 170.938 129.919 171.132L129.909 171.126ZM187.132 245.622C187.386 246.061 187.852 246.36 188.399 246.377C189.248 246.411 189.97 245.747 190.008 244.905C190.187 241.138 190.052 237.121 189.6 232.965C189.508 232.124 188.75 231.526 187.903 231.626C187.056 231.727 186.446 232.486 186.538 233.327C186.974 237.325 187.107 241.177 186.934 244.792C186.922 245.095 186.993 245.381 187.132 245.622ZM152.709 175.522C152.847 175.762 153.057 175.974 153.328 176.108C156.577 177.779 159.708 179.937 162.635 182.521C163.27 183.079 164.24 183.019 164.809 182.382C165.378 181.745 165.324 180.777 164.692 180.223C161.577 177.476 158.237 175.173 154.764 173.385C154.011 173 153.083 173.295 152.685 174.043C152.427 174.525 152.46 175.08 152.711 175.514L152.709 175.522ZM184.718 222.4C185.049 222.974 185.732 223.282 186.414 223.111C187.238 222.907 187.753 222.079 187.553 221.257C186.63 217.398 185.46 213.578 184.085 209.9C183.789 209.115 182.902 208.714 182.109 209.017C181.31 209.319 180.904 210.207 181.197 210.994C182.529 214.555 183.66 218.256 184.557 221.993C184.592 222.14 184.645 222.276 184.715 222.396L184.718 222.4ZM187.914 227.223C188.031 227.426 188.201 227.612 188.416 227.747C189.132 228.197 190.081 227.982 190.541 227.266C192.746 223.84 194.582 220.209 195.991 216.477C196.293 215.68 195.892 214.802 195.096 214.515C194.297 214.224 193.409 214.632 193.112 215.426C191.778 218.953 190.045 222.384 187.956 225.631C187.634 226.132 187.638 226.746 187.914 227.223ZM170.235 190.721C170.267 190.777 170.299 190.832 170.341 190.882C172.56 193.807 174.647 197.087 176.489 200.526C176.875 201.271 177.82 201.545 178.569 201.144C179.322 200.74 179.608 199.81 179.21 199.065C177.295 195.49 175.124 192.074 172.805 189.021C172.293 188.349 171.331 188.22 170.65 188.736C170.019 189.212 169.856 190.064 170.235 190.721ZM196.156 205.367C196.38 205.756 196.778 206.044 197.267 206.113C198.109 206.231 198.896 205.648 199.019 204.812C199.594 201.008 199.845 196.989 199.767 192.865C199.747 192.019 199.046 191.357 198.197 191.378C197.344 191.402 196.673 192.11 196.685 192.954C196.764 196.906 196.524 200.751 195.971 204.388C195.918 204.739 195.993 205.085 196.159 205.372L196.156 205.367ZM195.826 182.028C196.133 182.56 196.752 182.875 197.405 182.763C198.248 182.622 198.818 181.836 198.685 181C198.082 177.21 197.222 173.309 196.132 169.411C195.906 168.598 195.057 168.132 194.236 168.365C193.416 168.598 192.939 169.447 193.165 170.26C194.222 174.048 195.059 177.833 195.641 181.512C195.668 181.699 195.733 181.878 195.822 182.03L195.826 182.028ZM189.589 159.527C189.961 160.17 190.764 160.458 191.485 160.172C192.276 159.857 192.669 158.97 192.365 158.183C190.945 154.556 189.317 150.926 187.538 147.389C187.156 146.641 186.234 146.341 185.474 146.724C184.711 147.109 184.402 148.034 184.784 148.782C186.523 152.237 188.107 155.781 189.496 159.322C189.524 159.392 189.559 159.464 189.597 159.529L189.589 159.527ZM172.471 129.055C172.503 129.111 172.535 129.166 172.576 129.216C174.868 132.223 177.073 135.415 179.127 138.713C179.572 139.431 180.519 139.643 181.245 139.193C181.971 138.742 182.209 137.803 181.749 137.082C179.642 133.703 177.389 130.428 175.036 127.346C174.523 126.674 173.56 126.551 172.883 127.066C172.257 127.538 172.089 128.394 172.468 129.05L172.471 129.055Z" fill="white"/>
<defs>
<radialGradient id="paint0_radial_5199_4699" cx="0" cy="0" r="1" gradientUnits="userSpaceOnUse" gradientTransform="translate(109.214 104.432) rotate(-128.753) scale(76.3278 50.1828)">
<stop stop-color="#D1D3D4"/>
<stop offset="0.1" stop-color="#D2D4D5" stop-opacity="0.96"/>
<stop offset="0.26" stop-color="#D8D9DA" stop-opacity="0.84"/>
<stop offset="0.46" stop-color="#E0E2E2" stop-opacity="0.66"/>
<stop offset="0.69" stop-color="#ECEDEE" stop-opacity="0.39"/>
<stop offset="0.95" stop-color="#FBFCFC" stop-opacity="0.07"/>
<stop offset="1" stop-color="white" stop-opacity="0"/>
</radialGradient>
</defs>
</svg>
