<svg width="268" height="148" viewBox="0 0 268 148" fill="none" xmlns="http://www.w3.org/2000/svg">
<path style="mix-blend-mode:multiply" d="M246.945 94.2109C264.096 64.5038 262.365 31.3729 243.079 20.2109C223.793 9.04887 194.254 24.0826 177.103 53.7897C159.951 83.4968 161.682 116.628 180.969 127.79C200.255 138.952 229.794 123.918 246.945 94.2109Z" fill="url(#paint0_radial_5199_4698)"/>
<path d="M226.382 4.47852L142.375 43.2888L170.583 52.5565L226.382 4.47852Z" fill="#F2F7FC"/>
<path d="M170.583 52.5565L176.569 85.1389L226.382 4.47852L170.583 52.5565Z" fill="#FF5561"/>
<path d="M176.569 85.1389L183.319 59.0886L226.383 4.47852L176.569 85.1389Z" fill="#7E9AB0"/>
<path d="M226.382 4.47852L208.595 80.8161L183.319 59.0886L226.382 4.47852Z" fill="#F2F7FC"/>
<path d="M4.06668 106.849C3.7105 106.849 3.35433 106.693 3.10674 106.397C2.07728 105.145 1.10863 103.875 0.226858 102.618C-0.16842 102.057 -0.0337639 101.283 0.526575 100.887C1.08691 100.491 1.86008 100.626 2.25536 101.191C3.10239 102.396 4.03194 103.618 5.0223 104.823C5.45667 105.353 5.38282 106.136 4.85289 106.571C4.62268 106.762 4.34468 106.854 4.06668 106.854V106.849Z" fill="#F2F7FC"/>
<path d="M61.7683 134.831C61.1255 134.831 60.5825 134.335 60.5304 133.683C60.4783 133 60.9908 132.404 61.6771 132.352C62.8542 132.265 64.0314 132.126 65.1781 131.943C67.0416 131.647 68.9181 131.239 70.7598 130.734C71.4244 130.551 72.102 130.943 72.2845 131.604C72.4669 132.265 72.076 132.948 71.4157 133.13C69.4871 133.661 67.5194 134.087 65.5647 134.396C64.3485 134.592 63.1019 134.735 61.8596 134.826C61.8292 134.826 61.7944 134.826 61.764 134.826L61.7683 134.831ZM52.3121 134.587C52.2643 134.587 52.2122 134.587 52.16 134.579C49.0673 134.205 45.8791 133.552 42.6908 132.63C42.0305 132.439 41.6526 131.752 41.8394 131.091C42.0305 130.43 42.7212 130.047 43.3771 130.238C46.4394 131.121 49.493 131.752 52.4554 132.108C53.1374 132.191 53.6195 132.809 53.537 133.491C53.4632 134.122 52.9245 134.587 52.3077 134.587H52.3121ZM79.9685 129.89C79.5037 129.89 79.0563 129.625 78.8435 129.177C78.5524 128.555 78.8174 127.816 79.4385 127.525C80.7894 126.89 82.1186 126.198 83.4261 125.454C82.2446 125.124 81.0805 124.763 79.9337 124.38C79.2822 124.163 78.9303 123.458 79.1475 122.81C79.3647 122.158 80.0684 121.806 80.7156 122.023C82.553 122.636 84.4425 123.18 86.3537 123.658C86.7273 123.41 87.1008 123.163 87.4744 122.906C88.0391 122.515 88.8123 122.658 89.1989 123.223C89.4334 123.563 89.4725 123.98 89.3465 124.341C89.4725 124.367 89.6028 124.393 89.7288 124.419C90.4021 124.554 90.8364 125.211 90.6974 125.885C90.5628 126.559 89.9112 126.99 89.2379 126.859C88.4213 126.694 87.6091 126.516 86.8011 126.329C84.7639 127.612 82.6529 128.768 80.4941 129.782C80.3247 129.86 80.1466 129.899 79.9685 129.899V129.89ZM34.1337 129.438C33.9686 129.438 33.7992 129.403 33.6341 129.334C30.7542 128.068 27.8787 126.585 25.0727 124.937C24.4819 124.589 24.2865 123.828 24.634 123.237C24.9815 122.645 25.7416 122.449 26.3323 122.797C29.0515 124.398 31.8445 125.833 34.6332 127.059C35.263 127.338 35.5454 128.068 35.2717 128.699C35.0676 129.164 34.6115 129.442 34.1337 129.442V129.438ZM103.103 128.325C101.691 128.325 100.254 128.273 98.7898 128.168C98.1078 128.12 97.5909 127.525 97.6387 126.842C97.6865 126.159 98.2772 125.655 98.9635 125.689C100.371 125.789 101.748 125.842 103.06 125.842C104.814 125.842 106.548 125.772 108.255 125.641C108.945 125.585 109.536 126.102 109.588 126.785C109.64 127.468 109.128 128.068 108.446 128.12C106.674 128.255 104.88 128.325 103.107 128.325H103.103ZM117.715 126.759C117.142 126.759 116.629 126.359 116.503 125.776C116.36 125.107 116.786 124.446 117.455 124.302C120.443 123.658 123.458 122.806 126.416 121.762C127.063 121.532 127.771 121.875 127.997 122.519C128.227 123.167 127.884 123.876 127.241 124.102C124.187 125.181 121.069 126.063 117.976 126.729C117.889 126.746 117.802 126.755 117.715 126.755V126.759ZM71.5547 120.849C71.3679 120.849 71.1812 120.81 71.0074 120.718C68.0016 119.231 65.2085 117.548 62.7153 115.717C62.1636 115.313 62.042 114.534 62.4459 113.982C62.8499 113.43 63.6274 113.308 64.1791 113.712C66.5594 115.456 69.2265 117.065 72.1064 118.492C72.7188 118.796 72.9708 119.54 72.6667 120.157C72.4495 120.597 72.0108 120.849 71.5547 120.849ZM135.559 120.488C135.103 120.488 134.66 120.231 134.443 119.792C134.139 119.179 134.395 118.431 135.008 118.131C137.744 116.783 140.485 115.239 143.152 113.547C143.73 113.182 144.499 113.351 144.863 113.93C145.228 114.508 145.059 115.278 144.481 115.643C141.74 117.383 138.921 118.966 136.107 120.353C135.933 120.44 135.742 120.479 135.559 120.479V120.488ZM17.8187 119.849C17.5624 119.849 17.3018 119.766 17.0759 119.601C14.487 117.661 12.0068 115.582 9.70464 113.421C9.20511 112.951 9.17905 112.164 9.64817 111.664C10.1173 111.164 10.9035 111.138 11.403 111.607C13.6357 113.708 16.0421 115.726 18.5571 117.609C19.1044 118.018 19.2173 118.796 18.809 119.349C18.5658 119.675 18.1922 119.849 17.8143 119.849H17.8187ZM95.5146 119.17C95.1888 119.17 94.8631 119.044 94.6198 118.792C94.142 118.296 94.1594 117.509 94.6546 117.035C96.9046 114.865 98.9548 112.521 100.749 110.063C101.153 109.511 101.93 109.389 102.482 109.794C103.034 110.198 103.155 110.977 102.751 111.529C100.87 114.099 98.7246 116.552 96.3747 118.822C96.1358 119.053 95.823 119.17 95.5146 119.17ZM151.566 110.372C151.197 110.372 150.832 110.207 150.584 109.894C150.163 109.355 150.258 108.572 150.801 108.15C153.234 106.254 155.627 104.201 157.921 102.053C158.42 101.583 159.206 101.609 159.676 102.109C160.145 102.609 160.119 103.396 159.619 103.866C157.273 106.067 154.819 108.167 152.33 110.107C152.104 110.285 151.835 110.368 151.57 110.368L151.566 110.372ZM56.4603 109.581C56.1128 109.581 55.7697 109.437 55.5221 109.155C53.3242 106.623 51.5172 103.866 50.1533 100.97C49.8622 100.348 50.1272 99.6085 50.7483 99.3172C51.3695 99.0258 52.1079 99.2911 52.3989 99.913C53.6673 102.601 55.3483 105.162 57.3986 107.524C57.8503 108.041 57.7938 108.828 57.2769 109.276C57.0424 109.481 56.7513 109.581 56.4647 109.581H56.4603ZM106.608 103.905C106.43 103.905 106.252 103.866 106.079 103.788C105.457 103.496 105.192 102.753 105.488 102.135C106.839 99.2737 107.842 96.3511 108.472 93.4503C108.62 92.7806 109.284 92.3544 109.949 92.5023C110.618 92.6502 111.043 93.3112 110.896 93.981C110.222 97.0644 109.158 100.165 107.729 103.201C107.516 103.649 107.073 103.914 106.604 103.914L106.608 103.905ZM48.5244 92.6502C47.9249 92.6502 47.3993 92.2152 47.2994 91.6064C46.9737 89.5667 46.8042 87.5053 46.8042 85.4787C46.8042 84.2566 46.8651 83.0302 46.9824 81.8299C47.0519 81.1471 47.6556 80.647 48.3376 80.7166C49.0196 80.7862 49.5191 81.395 49.4496 82.0735C49.3366 83.1912 49.2802 84.3393 49.2802 85.4787C49.2802 87.3748 49.4365 89.3015 49.7406 91.2107C49.8492 91.8891 49.3888 92.524 48.7111 92.6371C48.646 92.6501 48.5765 92.6545 48.5113 92.6545L48.5244 92.6502ZM110.461 85.5309C109.81 85.5309 109.262 85.0221 109.223 84.361C109.05 81.2907 108.411 78.3029 107.338 75.4891C107.095 74.8498 107.412 74.1322 108.055 73.8843C108.689 73.6408 109.41 73.9583 109.658 74.6019C110.822 77.6549 111.512 80.8905 111.704 84.2175C111.743 84.9046 111.221 85.4917 110.535 85.5309C110.509 85.5309 110.487 85.5309 110.461 85.5309ZM50.4356 74.0017C50.2836 74.0017 50.1272 73.9713 49.9795 73.9148C49.341 73.6625 49.0326 72.9406 49.2845 72.3013C50.5094 69.2136 52.1644 66.3563 54.2059 63.8078C54.636 63.2728 55.4178 63.1858 55.9521 63.6164C56.4864 64.0469 56.5732 64.8254 56.1432 65.3647C54.2581 67.7175 52.7291 70.3617 51.5954 73.219C51.4043 73.706 50.9351 74.0017 50.4399 74.0017H50.4356ZM103.872 68.035C103.494 68.035 103.125 67.8653 102.877 67.5392C101.035 65.0907 98.894 62.8727 96.518 60.9548C95.9837 60.5243 95.9012 59.7414 96.3312 59.2065C96.7613 58.6716 97.5431 58.589 98.0774 59.0195C100.614 61.0679 102.895 63.4338 104.862 66.0431C105.275 66.5911 105.166 67.3696 104.619 67.7827C104.398 67.9523 104.133 68.0306 103.872 68.0306V68.035ZM62.1332 59.4457C61.7336 59.4457 61.3383 59.25 61.0994 58.8891C60.7215 58.3193 60.8779 57.5452 61.4469 57.1669C64.1574 55.3664 67.1502 53.9747 70.3472 53.0354C71.0074 52.8396 71.6937 53.218 71.8892 53.879C72.0803 54.5401 71.7067 55.2272 71.0465 55.4229C68.0884 56.2927 65.3215 57.5757 62.8195 59.2413C62.6067 59.3805 62.3678 59.4501 62.1332 59.4501V59.4457ZM89.2162 56.3231C89.0555 56.3231 88.8905 56.2927 88.7341 56.2231C85.8195 54.9837 82.8744 54.2965 79.9902 54.1704C79.3039 54.14 78.7739 53.5616 78.8043 52.8744C78.8347 52.1873 79.3908 51.6654 80.0988 51.6872C83.2827 51.822 86.5188 52.5787 89.7071 53.9312C90.3369 54.2008 90.6323 54.9271 90.3673 55.5621C90.1675 56.0361 89.7071 56.3188 89.2249 56.3188L89.2162 56.3231Z" fill="#F2F7FC"/>
<path d="M165.423 97.3691C165.132 97.3691 164.836 97.2647 164.602 97.056C164.089 96.5993 164.041 95.8165 164.497 95.3033C165.557 94.1074 166.522 92.9593 167.451 91.7894C167.877 91.2501 168.659 91.1631 169.193 91.5893C169.732 92.0155 169.818 92.7984 169.393 93.3333C168.437 94.538 167.442 95.7208 166.352 96.9473C166.109 97.2256 165.766 97.3647 165.423 97.3647V97.3691Z" fill="#F2F7FC"/>
<defs>
<radialGradient id="paint0_radial_5199_4698" cx="0" cy="0" r="1" gradientUnits="userSpaceOnUse" gradientTransform="translate(212.042 74.006) rotate(-60.0001) scale(62.1106 40.3475)">
<stop stop-color="#D1D3D4"/>
<stop offset="0.1" stop-color="#D2D4D5" stop-opacity="0.96"/>
<stop offset="0.26" stop-color="#D8D9DA" stop-opacity="0.84"/>
<stop offset="0.46" stop-color="#E0E2E2" stop-opacity="0.66"/>
<stop offset="0.69" stop-color="#ECEDEE" stop-opacity="0.39"/>
<stop offset="0.95" stop-color="#FBFCFC" stop-opacity="0.07"/>
<stop offset="1" stop-color="white" stop-opacity="0"/>
</radialGradient>
</defs>
</svg>
