<svg width="218" height="263" viewBox="0 0 218 263" fill="none" xmlns="http://www.w3.org/2000/svg">
<path d="M27.7585 33.0731L122.347 64.0542L95.9552 79.329L27.7585 33.0731Z" fill="white"/>
<path d="M95.9556 79.3294L90.286 112.658L27.7588 33.0735L95.9556 79.3294Z" fill="#315B7C"/>
<path d="M90.2854 112.657L84.4242 87.0635L27.7582 33.073L90.2854 112.657Z" fill="#7E9AB0"/>
<path d="M27.7582 33.0739L55.3901 111.963L84.4242 87.0644L27.7582 33.0739Z" fill="white"/>
<path d="M143.923 195.325L217.97 219.516L197.309 231.443L143.923 195.325Z" fill="white"/>
<path d="M197.31 231.443L192.871 257.466L143.923 195.325L197.31 231.443Z" fill="#315B7C"/>
<path d="M192.871 257.466L188.282 237.482L143.923 195.325L192.871 257.466Z" fill="#7E9AB0"/>
<path d="M143.923 195.325L165.554 256.924L188.283 237.482L143.923 195.325Z" fill="white"/>
<path d="M10.7462 118.682L85.7486 143.297L64.8214 155.434L10.7462 118.682Z" fill="white"/>
<path d="M64.8222 155.434L60.3267 181.913L10.747 118.682L64.8222 155.434Z" fill="#315B7C"/>
<path d="M60.3258 181.914L55.6782 161.579L10.7462 118.683L60.3258 181.914Z" fill="#7E9AB0"/>
<path d="M10.7463 118.683L32.6564 181.362L55.6784 161.58L10.7463 118.683Z" fill="white"/>
<path d="M142.691 79.8198L208.139 101.323L189.877 111.924L142.691 79.8198Z" fill="white"/>
<path d="M189.878 111.924L185.955 135.056L142.691 79.8198L189.878 111.924Z" fill="#315B7C"/>
<path d="M185.955 135.056L181.899 117.293L142.691 79.82L185.955 135.056Z" fill="#7E9AB0"/>
<path d="M142.691 79.82L161.81 134.574L181.899 117.293L142.691 79.82Z" fill="white"/>
<path d="M107.717 136.054L154.056 151.332L141.127 158.865L107.717 136.054Z" fill="white"/>
<path d="M141.127 158.865L138.35 175.301L107.718 136.054L141.127 158.865Z" fill="#315B7C"/>
<path d="M138.349 175.302L135.477 162.68L107.717 136.055L138.349 175.302Z" fill="#7E9AB0"/>
<path d="M107.717 136.054L121.254 174.958L135.478 162.68L107.717 136.054Z" fill="white"/>
</svg>
