<svg width="290" height="338" viewBox="0 0 290 338" fill="none" xmlns="http://www.w3.org/2000/svg">
<path style="mix-blend-mode:multiply" d="M76.2236 89.4365C72.0003 55.9617 84.6957 26.8032 104.579 24.3091C124.463 21.8151 144.006 46.9299 148.229 80.4047C152.452 113.879 139.757 143.038 119.873 145.532C99.9895 148.026 80.4469 122.911 76.2236 89.4365Z" fill="url(#paint0_radial_5277_510)"/>
<path d="M122.463 11.1191L186.855 78.1724L156.48 76.4853L122.463 11.1191Z" fill="#7E9AB0"/>
<path d="M156.481 76.4854L139.597 104.735L122.463 11.1193L156.481 76.4854Z" fill="#315B7C"/>
<path d="M139.597 104.735L142.429 79.0372L122.463 11.1193L139.597 104.735Z" fill="#9AB7BE"/>
<path d="M122.463 11.1192L111.411 88.2425L142.429 79.0371L122.463 11.1192Z" fill="#7E9AB0"/>
<path d="M120.393 290.349L120.4 290.362C121.703 292.554 123.118 294.786 124.606 296.993C124.927 297.468 125.571 297.595 126.048 297.274C126.522 296.954 126.643 296.305 126.327 295.831C124.862 293.657 123.468 291.46 122.183 289.299C121.889 288.805 121.251 288.644 120.76 288.936C120.27 289.227 120.109 289.858 120.393 290.349ZM116.622 283.534C116.896 284.01 117.5 284.19 117.993 283.939C118.505 283.678 118.706 283.053 118.444 282.541C117.253 280.217 116.155 277.864 115.174 275.554C114.943 275.023 114.341 274.779 113.812 275.005C113.283 275.23 113.038 275.838 113.264 276.367C114.265 278.725 115.388 281.121 116.6 283.488C116.609 283.504 116.618 283.52 116.627 283.535L116.622 283.534ZM129.086 303.277C129.106 303.312 129.128 303.35 129.154 303.381C130.685 305.42 132.315 307.495 133.998 309.547C134.364 309.991 135.018 310.055 135.461 309.689C135.905 309.324 135.968 308.67 135.602 308.226C133.938 306.201 132.326 304.15 130.818 302.134C130.473 301.674 129.824 301.583 129.363 301.925C128.937 302.242 128.826 302.827 129.084 303.274L129.086 303.277ZM110.563 269.194C110.804 269.613 111.313 269.819 111.789 269.662C112.335 269.481 112.629 268.892 112.446 268.351C111.628 265.887 110.921 263.397 110.341 260.947C110.208 260.39 109.651 260.043 109.092 260.173C108.535 260.306 108.19 260.862 108.32 261.421C108.911 263.928 109.636 266.478 110.473 269.003C110.495 269.07 110.525 269.136 110.559 269.196L110.563 269.194ZM138.97 315.324C139.005 315.384 139.048 315.444 139.095 315.496C140.788 317.396 142.572 319.331 144.409 321.248C144.807 321.661 145.462 321.678 145.877 321.283C146.289 320.885 146.305 320.229 145.91 319.815C144.092 317.916 142.322 315.998 140.648 314.116C140.265 313.686 139.61 313.649 139.181 314.031C138.807 314.365 138.73 314.909 138.972 315.328L138.97 315.324ZM107.017 254.042C107.221 254.395 107.626 254.61 108.054 254.552C108.623 254.476 109.021 253.952 108.946 253.386C108.603 250.837 108.392 248.262 108.321 245.733C108.304 245.159 107.826 244.709 107.252 244.725C106.678 244.741 106.228 245.219 106.245 245.793C106.319 248.393 106.536 251.043 106.887 253.664C106.905 253.804 106.948 253.93 107.016 254.047L107.017 254.042ZM149.742 326.59C149.788 326.669 149.844 326.746 149.917 326.813C151.739 328.596 153.647 330.41 155.585 332.205C156.008 332.595 156.664 332.569 157.054 332.147C157.444 331.725 157.417 331.068 156.994 330.678C155.07 328.899 153.175 327.099 151.368 325.329C150.956 324.928 150.3 324.933 149.9 325.344C149.567 325.684 149.515 326.197 149.742 326.59ZM106.587 238.493C106.753 238.78 107.05 238.982 107.402 239.01C107.974 239.058 108.475 238.63 108.518 238.059C108.721 235.531 109.072 232.972 109.554 230.455C109.664 229.892 109.291 229.347 108.729 229.239C108.168 229.13 107.622 229.5 107.514 230.062C107.018 232.655 106.659 235.289 106.448 237.889C106.432 238.108 106.48 238.316 106.582 238.492L106.587 238.493ZM109.499 223.217C109.626 223.437 109.837 223.614 110.101 223.692C110.65 223.858 111.229 223.545 111.394 222.996C111.519 222.58 111.644 222.172 111.768 221.776C112.431 219.676 113.165 217.656 113.954 215.773C114.176 215.241 113.926 214.634 113.396 214.414C112.865 214.192 112.258 214.442 112.039 214.971C111.225 216.911 110.471 218.993 109.79 221.155C109.661 221.565 109.535 221.978 109.407 222.404C109.32 222.69 109.364 222.984 109.503 223.223L109.499 223.217ZM115.546 208.931C115.634 209.082 115.761 209.215 115.924 209.309C116.422 209.597 117.055 209.429 117.344 208.934C118.566 206.835 119.914 204.809 121.584 202.564C121.927 202.105 121.833 201.454 121.371 201.112C120.912 200.768 120.261 200.862 119.92 201.324C118.198 203.632 116.81 205.719 115.55 207.891C115.357 208.225 115.368 208.622 115.548 208.934L115.546 208.931ZM124.662 196.355C124.724 196.462 124.807 196.562 124.91 196.645C125.356 197.005 126.01 196.938 126.369 196.491C127.976 194.501 129.552 192.528 131.169 190.314C131.506 189.851 131.408 189.201 130.943 188.861C130.48 188.524 129.831 188.621 129.491 189.086C127.9 191.265 126.34 193.215 124.75 195.184C124.474 195.527 124.45 195.995 124.659 196.357L124.662 196.355ZM133.744 183.749C133.83 183.897 133.95 184.025 134.108 184.118C134.599 184.415 135.237 184.256 135.533 183.766C136.875 181.534 138.095 179.272 139.269 176.843C139.516 176.326 139.301 175.707 138.786 175.454C138.267 175.203 137.65 175.421 137.398 175.936C136.253 178.306 135.058 180.517 133.752 182.695C133.551 183.029 133.562 183.434 133.744 183.749ZM140.535 169.777C140.648 169.973 140.825 170.135 141.054 170.226C141.586 170.435 142.189 170.171 142.401 169.637C143.311 167.31 144.194 164.821 145.024 162.247C145.199 161.7 144.898 161.114 144.352 160.938C143.806 160.762 143.223 161.06 143.047 161.607C142.228 164.142 141.364 166.59 140.465 168.877C140.343 169.183 140.382 169.513 140.533 169.774L140.535 169.777ZM145.251 154.95C145.391 155.193 145.628 155.379 145.924 155.448C146.483 155.574 147.038 155.22 147.164 154.66C147.72 152.164 148.143 149.538 148.422 146.853C148.482 146.281 148.067 145.773 147.498 145.71C146.926 145.65 146.419 146.065 146.357 146.634C146.086 149.239 145.673 151.787 145.139 154.204C145.081 154.468 145.128 154.731 145.254 154.949L145.251 154.95ZM146.905 139.48C147.083 139.788 147.418 139.998 147.798 140.002C148.371 140.006 148.838 139.544 148.843 138.97C148.858 136.424 148.763 133.774 148.559 131.095C148.515 130.524 148.018 130.092 147.444 130.138C146.874 130.182 146.445 130.681 146.489 131.252C146.688 133.872 146.783 136.463 146.766 138.955C146.763 139.146 146.816 139.325 146.905 139.48ZM145.746 123.949C145.954 124.308 146.362 124.521 146.8 124.458C147.368 124.373 147.759 123.845 147.675 123.276C147.3 120.746 146.83 118.144 146.276 115.541C146.155 114.976 145.606 114.621 145.045 114.739C144.484 114.858 144.126 115.408 144.245 115.97C144.79 118.528 145.253 121.088 145.62 123.577C145.638 123.709 145.684 123.833 145.748 123.944L145.746 123.949ZM142.522 108.699C142.753 109.099 143.23 109.307 143.695 109.181C144.246 109.031 144.574 108.459 144.424 107.908C144.146 106.888 143.869 105.914 143.599 104.99C143.441 104.439 142.86 104.123 142.311 104.285C141.762 104.446 141.446 105.024 141.607 105.573C141.876 106.481 142.148 107.44 142.421 108.451C142.446 108.537 142.482 108.621 142.526 108.697L142.522 108.699Z" fill="#7E9AB0"/>
<defs>
<radialGradient id="paint0_radial_5277_510" cx="0" cy="0" r="1" gradientUnits="userSpaceOnUse" gradientTransform="translate(112.334 85.7089) rotate(-97.1906) scale(60.8897 36.2849)">
<stop stop-color="#CCCCCC"/>
<stop offset="0.11" stop-color="#CDCDCD" stop-opacity="0.97"/>
<stop offset="0.25" stop-color="#D1D1D1" stop-opacity="0.89"/>
<stop offset="0.41" stop-color="#D8D8D8" stop-opacity="0.76"/>
<stop offset="0.59" stop-color="#E1E1E1" stop-opacity="0.57"/>
<stop offset="0.78" stop-color="#EDEDED" stop-opacity="0.33"/>
<stop offset="0.97" stop-color="#FCFCFC" stop-opacity="0.05"/>
<stop offset="1" stop-color="white" stop-opacity="0"/>
</radialGradient>
</defs>
</svg>
