<svg width="60" height="60" viewBox="0 0 60 60" fill="none" xmlns="http://www.w3.org/2000/svg">
<path d="M60 30C60 37.9565 56.8393 45.5871 51.2132 51.2132C45.5871 56.8393 37.9565 60 30 60C22.0435 60 14.4129 56.8393 8.7868 51.2132C3.16071 45.5871 0 37.9565 0 30C0 22.0435 3.16071 14.4129 8.7868 8.7868C14.4129 3.16071 22.0435 0 30 0C37.9565 0 45.5871 3.16071 51.2132 8.7868C56.8393 14.4129 60 22.0435 60 30ZM30 41.25C32.9837 41.25 35.8452 40.0647 37.955 37.955C40.0647 35.8452 41.25 32.9837 41.25 30C41.25 27.0163 40.0647 24.1548 37.955 22.045C35.8452 19.9353 32.9837 18.75 30 18.75C27.0163 18.75 24.1548 19.9353 22.045 22.045C19.9353 24.1548 18.75 27.0163 18.75 30C18.75 32.9837 19.9353 35.8452 22.045 37.955C24.1548 40.0647 27.0163 41.25 30 41.25Z" fill="#315B7C"/>
</svg>
