<svg width="60" height="60" viewBox="0 0 60 60" fill="none" xmlns="http://www.w3.org/2000/svg">
<path d="M30 60C25.85 60 21.95 59.212 18.3 57.636C14.65 56.062 11.475 53.925 8.775 51.225C6.075 48.525 3.938 45.35 2.364 41.7C0.788 38.05 0 34.15 0 30C0 25.85 0.788 21.95 2.364 18.3C3.938 14.65 6.075 11.475 8.775 8.775C11.475 6.075 14.65 3.937 18.3 2.361C21.95 0.787 25.85 0 30 0C34.15 0 38.05 0.787 41.7 2.361C45.35 3.937 48.525 6.075 51.225 8.775C53.925 11.475 56.062 14.65 57.636 18.3C59.212 21.95 60 25.85 60 30C60 34.15 59.212 38.05 57.636 41.7C56.062 45.35 53.925 48.525 51.225 51.225C48.525 53.925 45.35 56.062 41.7 57.636C38.05 59.212 34.15 60 30 60ZM30 48C35 48 39.25 46.25 42.75 42.75C46.25 39.25 48 35 48 30C48 25 46.25 20.75 42.75 17.25C39.25 13.75 35 12 30 12C25 12 20.75 13.75 17.25 17.25C13.75 20.75 12 25 12 30C12 35 13.75 39.25 17.25 42.75C20.75 46.25 25 48 30 48ZM23.925 33C23.075 33 22.375 32.712 21.825 32.136C21.275 31.562 21 30.85 21 30C21 29.15 21.288 28.437 21.864 27.861C22.438 27.287 23.15 27 24 27H36.075C36.925 27 37.625 27.287 38.175 27.861C38.725 28.437 39 29.15 39 30C39 30.85 38.713 31.562 38.139 32.136C37.563 32.712 36.85 33 36 33H23.925Z" fill="#315B7C"/>
</svg>
