<svg width="54" height="60" viewBox="0 0 54 60" fill="none" xmlns="http://www.w3.org/2000/svg">
<path d="M17.0854 1.875C17.0854 1.37772 17.2854 0.900806 17.6415 0.549175C17.9975 0.197544 18.4803 0 18.9838 0H34.1709C34.6743 0 35.1572 0.197544 35.5132 0.549175C35.8692 0.900806 36.0692 1.37772 36.0692 1.875C36.0692 2.37228 35.8692 2.84919 35.5132 3.20082C35.1572 3.55246 34.6743 3.75 34.1709 3.75H18.9838C18.4803 3.75 17.9975 3.55246 17.6415 3.20082C17.2854 2.84919 17.0854 2.37228 17.0854 1.875ZM45.3713 7.23375C45.7271 6.88339 46.2091 6.68665 46.7116 6.68665C47.214 6.68665 47.696 6.88339 48.0518 7.23375L53.4204 12.5363C53.6018 12.7092 53.7464 12.9161 53.8459 13.1449C53.9454 13.3736 53.9977 13.6197 53.9999 13.8686C54.0021 14.1176 53.9541 14.3645 53.8586 14.5949C53.7632 14.8253 53.6222 15.0347 53.444 15.2107C53.2657 15.3868 53.0538 15.526 52.8205 15.6203C52.5872 15.7146 52.3372 15.762 52.0851 15.7598C51.8331 15.7577 51.5839 15.706 51.3523 15.6077C51.1207 15.5094 50.9113 15.3666 50.7361 15.1875L45.3713 9.885C45.0154 9.53339 44.8155 9.05656 44.8155 8.55937C44.8155 8.06219 45.0154 7.58536 45.3713 7.23375ZM53.1547 33.75C53.1547 40.7119 50.3546 47.3887 45.3703 52.3116C40.3861 57.2344 33.6261 60 26.5773 60C19.5286 60 12.7685 57.2344 7.78432 52.3116C2.8001 47.3887 0 40.7119 0 33.75C0 26.7881 2.8001 20.1113 7.78432 15.1884C12.7685 10.2656 19.5286 7.5 26.5773 7.5C33.6261 7.5 40.3861 10.2656 45.3703 15.1884C50.3546 20.1113 53.1547 26.7881 53.1547 33.75ZM24.679 16.875V35.625C24.679 36.1223 24.879 36.5992 25.235 36.9508C25.591 37.3025 26.0739 37.5 26.5773 37.5C27.0808 37.5 27.5637 37.3025 27.9197 36.9508C28.2757 36.5992 28.4757 36.1223 28.4757 35.625V16.875C28.4757 16.3777 28.2757 15.9008 27.9197 15.5492C27.5637 15.1975 27.0808 15 26.5773 15C26.0739 15 25.591 15.1975 25.235 15.5492C24.879 15.9008 24.679 16.3777 24.679 16.875Z" fill="#315B7C"/>
</svg>
