<svg width="97" height="60" viewBox="0 0 97 60" fill="none" xmlns="http://www.w3.org/2000/svg">
<path d="M40.279 48.564C40.5605 48.2798 40.8963 48.0539 41.2668 47.8994C41.6373 47.7449 42.0352 47.6648 42.4373 47.664H54.5623C54.9644 47.6648 55.3623 47.7449 55.7328 47.8994C56.1033 48.0539 56.4391 48.2798 56.7205 48.564C57.7815 49.626 59.0849 50.646 60.3762 51.54C61.8379 52.5435 63.3604 53.4572 64.9352 54.276L64.9959 54.312H65.014C65.6276 54.6129 66.1202 55.1106 66.4114 55.724C66.7027 56.3374 66.7755 57.0303 66.6181 57.6899C66.4606 58.3494 66.0821 58.9368 65.5442 59.3563C65.0064 59.7758 64.3408 60.0027 63.656 60H33.3435C32.661 59.9999 31.9984 59.7719 31.4631 59.3528C30.9277 58.9336 30.551 58.3479 30.3939 57.6905C30.2368 57.0331 30.3085 56.3425 30.5973 55.7304C30.8862 55.1183 31.3753 54.6207 31.9855 54.318L31.9977 54.312L32.0583 54.276C32.4987 54.0589 32.9315 53.8267 33.3557 53.58C34.4736 52.9461 35.5638 52.2655 36.6234 51.54C37.9207 50.64 39.2181 49.626 40.279 48.564V48.564ZM42.4373 21C42.4373 19.4087 43.076 17.8826 44.213 16.7574C45.3499 15.6321 46.8919 15 48.4998 15C50.1077 15 51.6497 15.6321 52.7866 16.7574C53.9236 17.8826 54.5623 19.4087 54.5623 21C54.5623 22.5913 53.9236 24.1174 52.7866 25.2426C51.6497 26.3679 50.1077 27 48.4998 27C46.8919 27 45.3499 26.3679 44.213 25.2426C43.076 24.1174 42.4373 22.5913 42.4373 21Z" fill="#315B7C"/>
<path d="M12.125 0C8.90925 0 5.82521 1.26428 3.55133 3.51472C1.27745 5.76515 0 8.8174 0 12L0 30C0 33.1826 1.27745 36.2348 3.55133 38.4853C5.82521 40.7357 8.90925 42 12.125 42H84.875C88.0908 42 91.1748 40.7357 93.4487 38.4853C95.7225 36.2348 97 33.1826 97 30V12C97 8.8174 95.7225 5.76515 93.4487 3.51472C91.1748 1.26428 88.0908 0 84.875 0H12.125ZM48.5 9C51.7158 9 54.7998 10.2643 57.0737 12.5147C59.3475 14.7651 60.625 17.8174 60.625 21C60.625 24.1826 59.3475 27.2348 57.0737 29.4853C54.7998 31.7357 51.7158 33 48.5 33C45.2842 33 42.2002 31.7357 39.9263 29.4853C37.6525 27.2348 36.375 24.1826 36.375 21C36.375 17.8174 37.6525 14.7651 39.9263 12.5147C42.2002 10.2643 45.2842 9 48.5 9V9ZM75.7812 24C74.9773 24 74.2063 23.6839 73.6378 23.1213C73.0694 22.5587 72.75 21.7956 72.75 21C72.75 20.2043 73.0694 19.4413 73.6378 18.8787C74.2063 18.3161 74.9773 18 75.7812 18C76.5852 18 77.3562 18.3161 77.9247 18.8787C78.4931 19.4413 78.8125 20.2043 78.8125 21C78.8125 21.7956 78.4931 22.5587 77.9247 23.1213C77.3562 23.6839 76.5852 24 75.7812 24Z" fill="#315B7C"/>
</svg>
