<svg width="25" height="25" viewBox="0 0 25 25" fill="none" xmlns="http://www.w3.org/2000/svg">
<path d="M15.625 12.5H18.75C19.6136 12.5 20.3125 11.8018 20.3125 10.9375V7.8125C20.3125 6.94823 19.6136 6.25 18.75 6.25H15.625C14.7614 6.25 14.0625 6.94823 14.0625 7.8125V10.9375C14.0625 11.8018 14.7614 12.5 15.625 12.5Z" fill="#FF5561"/>
<path d="M18.75 20.3125H15.625C14.7614 20.3125 14.0625 19.6143 14.0625 18.75V15.625C14.0625 14.7607 14.7614 14.0625 15.625 14.0625H18.75C19.6136 14.0625 20.3125 14.7607 20.3125 15.625V18.75C20.3125 19.6143 19.6136 20.3125 18.75 20.3125Z" fill="#FF5561"/>
<path d="M7.8125 20.3125H10.9375C11.8011 20.3125 12.5 19.6143 12.5 18.75V15.625C12.5 14.7607 11.8011 14.0625 10.9375 14.0625H7.8125C6.94885 14.0625 6.25 14.7607 6.25 15.625V18.75C6.25 19.6143 6.94885 20.3125 7.8125 20.3125Z" fill="#FF5561"/>
<path fill-rule="evenodd" clip-rule="evenodd" d="M21.875 0H3.125C1.40076 0 0 1.40138 0 3.125V21.875C0 23.5986 1.40076 25 3.125 25H21.875C23.5992 25 25 23.5986 25 21.875V3.125C25 1.40138 23.5992 0 21.875 0ZM3.125 3.125H21.875V21.875H3.125V3.125Z" fill="#FF5561"/>
</svg>
