<svg width="26" height="25" viewBox="0 0 26 25" fill="none" xmlns="http://www.w3.org/2000/svg">
<path d="M10.8047 0L11.6714 6.29635C10.8627 6.40831 10.1074 6.67152 9.42987 7.06139L6.25299 1.5789C7.66138 0.75531 9.19183 0.224113 10.8047 0Z" fill="#FF5561"/>
<path d="M15.7943 7.16362L19.1467 1.79329C17.7627 0.921059 16.2521 0.341034 14.6499 0.063324L13.5772 6.32553C14.3768 6.46191 15.1275 6.74953 15.7943 7.16362Z" fill="#FF5561"/>
<path d="M18.7637 12.4123V12.4756C18.7637 13.2942 18.6065 14.0739 18.3196 14.7903L24.0753 17.1539C24.6887 15.6481 25.0015 14.0545 25.0015 12.4123V12.3781L18.7637 12.4123Z" fill="#FF5561"/>
<path d="M24.3911 8.54759L18.4356 10.4872C18.1777 9.71241 17.7734 9.0107 17.2515 8.40626L22.0519 4.32739C23.1048 5.57976 23.8891 6.99787 24.3911 8.54759Z" fill="#FF5561"/>
<path d="M7.93451 8.25062L3.26532 4.01077C2.17432 5.22423 1.34119 6.61793 0.790344 8.14819L6.68176 10.2877C6.96405 9.53217 7.39435 8.84018 7.93451 8.25062Z" fill="#FF5561"/>
<path d="M12.5244 18.7134C12.0712 18.7134 11.6287 18.6646 11.1999 18.572L9.89832 24.6735C10.7604 24.8587 11.6287 24.9609 12.535 24.9512C13.2568 24.9512 13.9877 24.8878 14.6987 24.7612L13.6215 18.6159C13.2659 18.6792 12.8997 18.7134 12.5244 18.7134Z" fill="#FF5561"/>
<path d="M18.3471 23.5039L15.4479 17.9873C16.1697 17.6023 16.8075 17.0809 17.3187 16.4619L22.0809 20.4727C21.0372 21.7203 19.7799 22.7436 18.3471 23.5039Z" fill="#FF5561"/>
<path d="M6.28656 12.4756L6.29114 12.1832L0.0533447 11.9591C0.0487671 12.1101 0.0441895 12.2612 0.0441895 12.4172C0.0441895 13.8937 0.297485 15.346 0.7995 16.7252L6.64209 14.576C6.41321 13.9181 6.28656 13.2114 6.28656 12.4756Z" fill="#FF5561"/>
<path d="M2.67633 20.112L7.57898 16.2767C8.07642 16.9201 8.6944 17.4658 9.40088 17.8751L6.29724 23.2796C4.89343 22.4659 3.67578 21.3985 2.67633 20.112Z" fill="#FF5561"/>
</svg>
