<svg width="25" height="18" viewBox="0 0 25 18" fill="#FF5561" xmlns="http://www.w3.org/2000/svg">
<path d="M24.5 11.7598V11.7609C24.5 13.8521 23.8938 15.8137 22.8296 17.5H18.3886C19.7512 16.0727 20.5942 14.1492 20.5942 12.0316C20.5942 7.60826 16.9693 4.03383 12.5 4.03383C8.03071 4.03383 4.40576 7.60826 4.40576 12.0316C4.40576 14.1492 5.24875 16.0727 6.61133 17.5H2.17035C1.10615 15.8137 0.5 13.8521 0.5 11.7609C0.5 5.56985 5.85869 0.5 12.5138 0.5C19.1685 0.5 24.5132 5.56916 24.5 11.7598ZM17.0732 18H17.867L17.6754 17.5C17.4836 17.6766 17.2825 17.8435 17.0732 18Z"/>
<path d="M8.91623 13.8428H15.5546C14.9003 15.2272 13.6355 16.1315 12.2354 16.1315C10.8353 16.1315 9.57049 15.2272 8.91623 13.8428Z"/>
</svg>
