<svg width="26" height="25" viewBox="0 0 26 25" fill="none" xmlns="http://www.w3.org/2000/svg">
<path d="M7.80273 20.332H23.4375C25.5225 20.332 25.5225 23.457 23.4375 23.457H7.80273C5.73242 23.457 5.73242 20.332 7.80273 20.332ZM7.80273 14.082H23.4375C25.5225 14.082 25.5225 10.957 23.4375 10.957H7.80273C5.73242 10.957 5.73242 14.082 7.80273 14.082ZM7.80273 4.6875H23.4375C25.5225 4.6875 25.5225 1.5625 23.4375 1.5625H7.80273C5.73242 1.5625 5.73242 4.6875 7.80273 4.6875ZM0 3.12988C0 5.20996 3.125 5.20996 3.125 3.12988C3.125 1.04492 0 1.04492 0 3.12988ZM0 12.5195C0 14.5996 3.125 14.5996 3.125 12.5195C3.125 10.4346 0 10.4346 0 12.5195ZM0 21.8945C0 23.9746 3.125 23.9746 3.125 21.8945C3.125 19.8096 0 19.8096 0 21.8945Z" fill="#FF5561"/>
</svg>
