<svg width="25" height="25" viewBox="0 0 25 25" fill="none" xmlns="http://www.w3.org/2000/svg">
<path d="M4.6875 1.5625H1.5625C0.698242 1.5625 0 2.26074 0 3.125V4.6875H6.25V3.125C6.25 2.26074 5.55176 1.5625 4.6875 1.5625Z" fill="#FF5561"/>
<path d="M0 21.875C0 22.7393 0.698242 23.4375 1.5625 23.4375H4.6875C5.55176 23.4375 6.25 22.7393 6.25 21.875V20.3125H0V21.875Z" fill="#FF5561"/>
<path d="M6.25 6.25H0V18.75H6.25V6.25Z" fill="#FF5561"/>
<path d="M12.5 1.5625H9.37501C8.51075 1.5625 7.81251 2.26074 7.81251 3.125V4.6875H14.0625V3.125C14.0625 2.26074 13.3643 1.5625 12.5 1.5625Z" fill="#FF5561"/>
<path d="M7.81251 21.875C7.81251 22.7393 8.51075 23.4375 9.37501 23.4375H12.5C13.3643 23.4375 14.0625 22.7393 14.0625 21.875V20.3125H7.81251V21.875Z" fill="#FF5561"/>
<path d="M14.0625 6.25H7.81251V18.75H14.0625V6.25Z" fill="#FF5561"/>
<path d="M17.5331 1.71878L16.0195 2.11429C15.1845 2.33402 14.6816 3.18363 14.9013 4.01859L15.2968 5.53226L19.833 4.35062L19.4374 2.83695C19.2177 2.00199 18.3681 1.49906 17.5331 1.71878Z" fill="#FF5561"/>
<path d="M20.2275 5.8612L15.691 7.04152L18.8385 19.139L23.375 17.9587L20.2275 5.8612Z" fill="#FF5561"/>
<path d="M19.6229 22.1632C19.8426 22.9981 20.6922 23.5011 21.5272 23.2813L23.0408 22.8858C23.8758 22.6661 24.3787 21.8165 24.159 20.9815L23.7635 19.4679L19.2273 20.6495L19.6229 22.1632Z" fill="#FF5561"/>
</svg>
