<svg width="25" height="25" viewBox="0 0 25 25" fill="none" xmlns="http://www.w3.org/2000/svg">
<path fill-rule="evenodd" clip-rule="evenodd" d="M10.9375 1.52112C10.9375 1.52112 3.125 1.52112 3.125 15.5953L1.5625 17.1591C1.5625 21.3617 23.4375 21.4594 23.4375 17.1591L21.875 15.5953C21.875 1.52112 14.0625 1.52112 14.0625 1.52112C14.0625 -0.482552 10.9375 -0.53138 10.9375 1.52112ZM6.25 16.6508C6.25 16.6508 6.25 4.6486 12.5 4.6486C18.75 4.6486 18.75 16.6508 18.75 16.6508C14.0625 17.1589 10.9375 17.1589 6.25 16.6508Z" fill="#FF5561"/>
<path d="M7.9834 21.4741C9.47266 26.1997 15.5273 26.1507 17.0166 21.4741C14.0625 21.8504 10.9375 21.8504 7.9834 21.4741Z" fill="#FF5561"/>
</svg>
