<svg width="25" height="25" viewBox="0 0 25 25" fill="none" xmlns="http://www.w3.org/2000/svg">
<path fill-rule="evenodd" clip-rule="evenodd" d="M4.71455 4.64364C4.71455 0.525949 10.0213 -1.91634 13.1455 1.91317C10.708 2.87054 8.54994 5.89898 9.47201 9.28399C9.45729 9.28399 9.44258 9.28643 9.42787 9.28887C9.41315 9.29131 9.39844 9.29376 9.38372 9.29376C6.80391 9.29376 4.71455 7.21293 4.71455 4.64364ZM20.3308 7.76916C20.3308 10.3373 18.2403 12.4193 15.6616 12.4193C13.0829 12.4193 10.9924 10.3373 10.9924 7.76916C10.9924 5.20097 13.0829 3.11904 15.6616 3.11904C18.2403 3.11904 20.3308 5.20097 20.3308 7.76916ZM25.0001 20.9334C25.0001 26.3553 6.33313 26.3553 6.33313 20.9334C6.33313 11.3499 25.0001 11.4476 25.0001 20.9334ZM10.0128 10.6906C1.39047 9.51342 -4.15173 19.478 3.94087 21.1778C4.01934 16.6009 7.51142 13.8167 11.7833 12.791C11.0476 12.2292 10.4444 11.5161 10.0128 10.6906Z" fill="#FF5561"/>
</svg>
