<svg width="130" height="130" viewBox="0 0 130 130" fill="none" xmlns="http://www.w3.org/2000/svg">
<g clip-path="url(#clip0_5091_696)">
<path d="M3.51083 0H0V24.5939H3.51083V0Z" fill="#315B7C"/>
<path d="M3.51083 28.1045H0V42.1568H3.51083V28.1045Z" fill="#315B7C"/>
<path d="M3.51083 52.6982H0V56.2091H3.51083V52.6982Z" fill="#315B7C"/>
<path d="M3.51083 59.7295H0V63.2403H3.51083V59.7295Z" fill="#315B7C"/>
<path d="M3.51083 66.751H0V73.7817H3.51083V66.751Z" fill="#315B7C"/>
<path d="M3.51083 80.8125H0V84.3233H3.51083V80.8125Z" fill="#315B7C"/>
<path d="M3.51083 87.834H0V101.886H3.51083V87.834Z" fill="#315B7C"/>
<path d="M3.51083 105.405H0V129.999H3.51083V105.405Z" fill="#315B7C"/>
<path d="M7.01913 0H3.5083V3.51083H7.01913V0Z" fill="#315B7C"/>
<path d="M7.01913 21.083H3.5083V24.5938H7.01913V21.083Z" fill="#315B7C"/>
<path d="M7.01913 31.624H3.5083V35.1348H7.01913V31.624Z" fill="#315B7C"/>
<path d="M7.01913 38.6465H3.5083V49.188H7.01913V38.6465Z" fill="#315B7C"/>
<path d="M7.01913 52.6982H3.5083V56.2091H7.01913V52.6982Z" fill="#315B7C"/>
<path d="M7.01913 59.7295H3.5083V63.2403H7.01913V59.7295Z" fill="#315B7C"/>
<path d="M7.01913 66.751H3.5083V73.7817H7.01913V66.751Z" fill="#315B7C"/>
<path d="M7.01913 80.8125H3.5083V84.3233H7.01913V80.8125Z" fill="#315B7C"/>
<path d="M7.01913 91.3447H3.5083V94.8556H7.01913V91.3447Z" fill="#315B7C"/>
<path d="M7.01913 105.405H3.5083V108.916H7.01913V105.405Z" fill="#315B7C"/>
<path d="M7.01913 126.48H3.5083V129.991H7.01913V126.48Z" fill="#315B7C"/>
<path d="M10.5396 0H7.02881V3.51083H10.5396V0Z" fill="#315B7C"/>
<path d="M10.5396 7.02148H7.02881V17.563H10.5396V7.02148Z" fill="#315B7C"/>
<path d="M10.5396 21.083H7.02881V24.5938H10.5396V21.083Z" fill="#315B7C"/>
<path d="M10.5396 31.624H7.02881V49.1872H10.5396V31.624Z" fill="#315B7C"/>
<path d="M10.5396 52.6982H7.02881V59.7289H10.5396V52.6982Z" fill="#315B7C"/>
<path d="M10.5396 63.2402H7.02881V66.7511H10.5396V63.2402Z" fill="#315B7C"/>
<path d="M10.5396 73.7812H7.02881V77.2921H10.5396V73.7812Z" fill="#315B7C"/>
<path d="M10.5396 87.834H7.02881V91.3448H10.5396V87.834Z" fill="#315B7C"/>
<path d="M10.5396 94.8643H7.02881V101.895H10.5396V94.8643Z" fill="#315B7C"/>
<path d="M10.5396 105.405H7.02881V108.916H10.5396V105.405Z" fill="#315B7C"/>
<path d="M10.5396 112.428H7.02881V122.969H10.5396V112.428Z" fill="#315B7C"/>
<path d="M10.5396 126.48H7.02881V129.991H10.5396V126.48Z" fill="#315B7C"/>
<path d="M14.0538 0H10.543V3.51083H14.0538V0Z" fill="#315B7C"/>
<path d="M14.0538 7.02148H10.543V17.563H14.0538V7.02148Z" fill="#315B7C"/>
<path d="M14.0538 21.083H10.543V24.5938H14.0538V21.083Z" fill="#315B7C"/>
<path d="M14.0538 28.1045H10.543V31.6153H14.0538V28.1045Z" fill="#315B7C"/>
<path d="M14.0538 35.1348H10.543V38.6456H14.0538V35.1348Z" fill="#315B7C"/>
<path d="M14.0538 45.6768H10.543V56.2183H14.0538V45.6768Z" fill="#315B7C"/>
<path d="M14.0538 59.7295H10.543V63.2403H14.0538V59.7295Z" fill="#315B7C"/>
<path d="M14.0538 66.751H10.543V80.8033H14.0538V66.751Z" fill="#315B7C"/>
<path d="M14.0538 84.3232H10.543V87.8341H14.0538V84.3232Z" fill="#315B7C"/>
<path d="M14.0538 98.375H10.543V101.886H14.0538V98.375Z" fill="#315B7C"/>
<path d="M14.0538 105.405H10.543V108.916H14.0538V105.405Z" fill="#315B7C"/>
<path d="M14.0538 112.428H10.543V122.969H14.0538V112.428Z" fill="#315B7C"/>
<path d="M14.0538 126.48H10.543V129.991H14.0538V126.48Z" fill="#315B7C"/>
<path d="M17.5623 0H14.0515V3.51083H17.5623V0Z" fill="#315B7C"/>
<path d="M17.5623 7.02148H14.0515V17.563H17.5623V7.02148Z" fill="#315B7C"/>
<path d="M17.5623 21.083H14.0515V24.5938H17.5623V21.083Z" fill="#315B7C"/>
<path d="M17.5623 28.1045H14.0515V31.6153H17.5623V28.1045Z" fill="#315B7C"/>
<path d="M17.5623 35.1348H14.0515V38.6456H17.5623V35.1348Z" fill="#315B7C"/>
<path d="M17.5623 52.6982H14.0515V56.2091H17.5623V52.6982Z" fill="#315B7C"/>
<path d="M17.5623 59.7295H14.0515V66.7602H17.5623V59.7295Z" fill="#315B7C"/>
<path d="M17.5623 73.7812H14.0515V80.812H17.5623V73.7812Z" fill="#315B7C"/>
<path d="M17.5623 84.3232H14.0515V98.3756H17.5623V84.3232Z" fill="#315B7C"/>
<path d="M17.5623 105.405H14.0515V108.916H17.5623V105.405Z" fill="#315B7C"/>
<path d="M17.5623 112.428H14.0515V122.969H17.5623V112.428Z" fill="#315B7C"/>
<path d="M17.5623 126.48H14.0515V129.991H17.5623V126.48Z" fill="#315B7C"/>
<path d="M21.0736 0H17.5627V3.51083H21.0736V0Z" fill="#315B7C"/>
<path d="M21.0736 21.083H17.5627V24.5938H21.0736V21.083Z" fill="#315B7C"/>
<path d="M21.0736 28.1045H17.5627V31.6153H21.0736V28.1045Z" fill="#315B7C"/>
<path d="M21.0736 35.1348H17.5627V38.6456H21.0736V35.1348Z" fill="#315B7C"/>
<path d="M21.0736 45.6768H17.5627V52.7074H21.0736V45.6768Z" fill="#315B7C"/>
<path d="M21.0736 56.2188H17.5627V59.7296H21.0736V56.2188Z" fill="#315B7C"/>
<path d="M21.0736 63.2402H17.5627V73.7817H21.0736V63.2402Z" fill="#315B7C"/>
<path d="M21.0736 80.8125H17.5627V84.3233H21.0736V80.8125Z" fill="#315B7C"/>
<path d="M21.0736 87.834H17.5627V91.3448H21.0736V87.834Z" fill="#315B7C"/>
<path d="M21.0736 94.8643H17.5627V98.3751H21.0736V94.8643Z" fill="#315B7C"/>
<path d="M21.0736 105.405H17.5627V108.916H21.0736V105.405Z" fill="#315B7C"/>
<path d="M21.0736 126.48H17.5627V129.991H21.0736V126.48Z" fill="#315B7C"/>
<path d="M24.5936 0H21.0828V24.5939H24.5936V0Z" fill="#315B7C"/>
<path d="M24.5936 28.1045H21.0828V31.6153H24.5936V28.1045Z" fill="#315B7C"/>
<path d="M24.5936 35.1348H21.0828V38.6456H24.5936V35.1348Z" fill="#315B7C"/>
<path d="M24.5936 42.1562H21.0828V45.6671H24.5936V42.1562Z" fill="#315B7C"/>
<path d="M24.5936 49.1875H21.0828V52.6983H24.5936V49.1875Z" fill="#315B7C"/>
<path d="M24.5936 56.2188H21.0828V59.7296H24.5936V56.2188Z" fill="#315B7C"/>
<path d="M24.5936 63.2402H21.0828V66.7511H24.5936V63.2402Z" fill="#315B7C"/>
<path d="M24.5936 70.2705H21.0828V73.7813H24.5936V70.2705Z" fill="#315B7C"/>
<path d="M24.5936 77.292H21.0828V80.8028H24.5936V77.292Z" fill="#315B7C"/>
<path d="M24.5936 84.3232H21.0828V87.8341H24.5936V84.3232Z" fill="#315B7C"/>
<path d="M24.5936 91.3447H21.0828V94.8556H24.5936V91.3447Z" fill="#315B7C"/>
<path d="M24.5936 98.375H21.0828V101.886H24.5936V98.375Z" fill="#315B7C"/>
<path d="M24.5936 105.405H21.0828V129.999H24.5936V105.405Z" fill="#315B7C"/>
<path d="M28.1048 28.1045H24.594V45.6677H28.1048V28.1045Z" fill="#315B7C"/>
<path d="M28.1048 52.6982H24.594V56.2091H28.1048V52.6982Z" fill="#315B7C"/>
<path d="M28.1048 66.751H24.594V73.7817H28.1048V66.751Z" fill="#315B7C"/>
<path d="M28.1048 84.3232H24.594V94.8648H28.1048V84.3232Z" fill="#315B7C"/>
<path d="M28.1048 98.375H24.594V101.886H28.1048V98.375Z" fill="#315B7C"/>
<path d="M31.6168 0H28.106V10.5415H31.6168V0Z" fill="#315B7C"/>
<path d="M31.6168 14.0518H28.106V17.5626H31.6168V14.0518Z" fill="#315B7C"/>
<path d="M31.6168 21.083H28.106V24.5938H31.6168V21.083Z" fill="#315B7C"/>
<path d="M31.6168 28.1045H28.106V31.6153H31.6168V28.1045Z" fill="#315B7C"/>
<path d="M31.6168 38.6465H28.106V42.1573H31.6168V38.6465Z" fill="#315B7C"/>
<path d="M31.6168 45.6768H28.106V49.1876H31.6168V45.6768Z" fill="#315B7C"/>
<path d="M31.6168 59.7295H28.106V66.7602H31.6168V59.7295Z" fill="#315B7C"/>
<path d="M31.6168 70.2705H28.106V77.3012H31.6168V70.2705Z" fill="#315B7C"/>
<path d="M31.6168 84.3232H28.106V94.8648H31.6168V84.3232Z" fill="#315B7C"/>
<path d="M31.6168 98.375H28.106V119.458H31.6168V98.375Z" fill="#315B7C"/>
<path d="M31.6168 126.48H28.106V129.991H31.6168V126.48Z" fill="#315B7C"/>
<path d="M35.1336 24.5938H31.6228V31.6244H35.1336V24.5938Z" fill="#315B7C"/>
<path d="M35.1336 35.1348H31.6228V38.6456H35.1336V35.1348Z" fill="#315B7C"/>
<path d="M35.1336 42.1562H31.6228V49.1869H35.1336V42.1562Z" fill="#315B7C"/>
<path d="M35.1336 66.751H31.6228V70.2618H35.1336V66.751Z" fill="#315B7C"/>
<path d="M35.1336 73.7812H31.6228V94.8643H35.1336V73.7812Z" fill="#315B7C"/>
<path d="M35.1336 98.375H31.6228V105.406H35.1336V98.375Z" fill="#315B7C"/>
<path d="M35.1336 112.428H31.6228V115.939H35.1336V112.428Z" fill="#315B7C"/>
<path d="M35.1336 122.97H31.6228V130H35.1336V122.97Z" fill="#315B7C"/>
<path d="M38.648 0H35.1372V3.51083H38.648V0Z" fill="#315B7C"/>
<path d="M38.648 14.0518H35.1372V24.5933H38.648V14.0518Z" fill="#315B7C"/>
<path d="M38.648 35.1348H35.1372V38.6456H38.648V35.1348Z" fill="#315B7C"/>
<path d="M38.648 42.1562H35.1372V49.1869H38.648V42.1562Z" fill="#315B7C"/>
<path d="M38.648 56.2188H35.1372V59.7296H38.648V56.2188Z" fill="#315B7C"/>
<path d="M38.648 73.7812H35.1372V80.812H38.648V73.7812Z" fill="#315B7C"/>
<path d="M38.648 84.3232H35.1372V87.8341H38.648V84.3232Z" fill="#315B7C"/>
<path d="M38.648 94.8643H35.1372V98.3751H38.648V94.8643Z" fill="#315B7C"/>
<path d="M38.648 101.887H35.1372V105.398H38.648V101.887Z" fill="#315B7C"/>
<path d="M38.648 108.916H35.1372V119.458H38.648V108.916Z" fill="#315B7C"/>
<path d="M38.648 122.97H35.1372V130H38.648V122.97Z" fill="#315B7C"/>
<path d="M42.1563 7.02148H38.6455V10.5323H42.1563V7.02148Z" fill="#315B7C"/>
<path d="M42.1563 14.0518H38.6455V17.5626H42.1563V14.0518Z" fill="#315B7C"/>
<path d="M42.1563 31.624H38.6455V35.1348H42.1563V31.624Z" fill="#315B7C"/>
<path d="M42.1563 56.2188H38.6455V63.2494H42.1563V56.2188Z" fill="#315B7C"/>
<path d="M42.1563 73.7812H38.6455V84.3228H42.1563V73.7812Z" fill="#315B7C"/>
<path d="M42.1563 87.834H38.6455V91.3448H42.1563V87.834Z" fill="#315B7C"/>
<path d="M42.1563 94.8643H38.6455V98.3751H42.1563V94.8643Z" fill="#315B7C"/>
<path d="M42.1563 115.947H38.6455V122.978H42.1563V115.947Z" fill="#315B7C"/>
<path d="M45.6678 7.02148H42.157V28.1045H45.6678V7.02148Z" fill="#315B7C"/>
<path d="M45.6678 31.624H42.157V35.1348H45.6678V31.624Z" fill="#315B7C"/>
<path d="M45.6678 38.6465H42.157V42.1573H45.6678V38.6465Z" fill="#315B7C"/>
<path d="M45.6678 45.6768H42.157V49.1876H45.6678V45.6768Z" fill="#315B7C"/>
<path d="M45.6678 52.6982H42.157V66.7506H45.6678V52.6982Z" fill="#315B7C"/>
<path d="M45.6678 70.2705H42.157V73.7813H45.6678V70.2705Z" fill="#315B7C"/>
<path d="M45.6678 91.3447H42.157V94.8556H45.6678V91.3447Z" fill="#315B7C"/>
<path d="M45.6678 108.916H42.157V126.488H45.6678V108.916Z" fill="#315B7C"/>
<path d="M49.1881 17.5625H45.6772V21.0733H49.1881V17.5625Z" fill="#315B7C"/>
<path d="M49.1881 24.5938H45.6772V35.1353H49.1881V24.5938Z" fill="#315B7C"/>
<path d="M49.1881 45.6768H45.6772V56.2183H49.1881V45.6768Z" fill="#315B7C"/>
<path d="M49.1881 66.751H45.6772V73.7817H49.1881V66.751Z" fill="#315B7C"/>
<path d="M49.1881 77.292H45.6772V80.8028H49.1881V77.292Z" fill="#315B7C"/>
<path d="M49.1881 105.405H45.6772V108.916H49.1881V105.405Z" fill="#315B7C"/>
<path d="M49.1881 119.458H45.6772V122.969H49.1881V119.458Z" fill="#315B7C"/>
<path d="M52.6995 0H49.1887V14.0523H52.6995V0Z" fill="#315B7C"/>
<path d="M52.6995 17.5625H49.1887V24.5932H52.6995V17.5625Z" fill="#315B7C"/>
<path d="M52.6995 28.1045H49.1887V35.1352H52.6995V28.1045Z" fill="#315B7C"/>
<path d="M52.6995 42.1562H49.1887V45.6671H52.6995V42.1562Z" fill="#315B7C"/>
<path d="M52.6995 49.1875H49.1887V56.2182H52.6995V49.1875Z" fill="#315B7C"/>
<path d="M52.6995 59.7295H49.1887V66.7602H52.6995V59.7295Z" fill="#315B7C"/>
<path d="M52.6995 73.7812H49.1887V77.2921H52.6995V73.7812Z" fill="#315B7C"/>
<path d="M52.6995 80.8125H49.1887V87.8432H52.6995V80.8125Z" fill="#315B7C"/>
<path d="M52.6995 91.3447H49.1887V105.397H52.6995V91.3447Z" fill="#315B7C"/>
<path d="M52.6995 108.916H49.1887V112.427H52.6995V108.916Z" fill="#315B7C"/>
<path d="M52.6995 115.947H49.1887V119.458H52.6995V115.947Z" fill="#315B7C"/>
<path d="M52.6995 126.48H49.1887V129.991H52.6995V126.48Z" fill="#315B7C"/>
<path d="M56.2108 3.51074H52.7V7.02157H56.2108V3.51074Z" fill="#315B7C"/>
<path d="M56.2108 17.5625H52.7V21.0733H56.2108V17.5625Z" fill="#315B7C"/>
<path d="M56.2108 38.6465H52.7V42.1573H56.2108V38.6465Z" fill="#315B7C"/>
<path d="M56.2108 45.6768H52.7V52.7074H56.2108V45.6768Z" fill="#315B7C"/>
<path d="M56.2108 63.2402H52.7V66.7511H56.2108V63.2402Z" fill="#315B7C"/>
<path d="M56.2108 70.2705H52.7V80.812H56.2108V70.2705Z" fill="#315B7C"/>
<path d="M56.2108 94.8643H52.7V98.3751H56.2108V94.8643Z" fill="#315B7C"/>
<path d="M56.2108 101.887H52.7V108.917H56.2108V101.887Z" fill="#315B7C"/>
<path d="M56.2108 112.428H52.7V115.939H56.2108V112.428Z" fill="#315B7C"/>
<path d="M56.2108 119.458H52.7V122.969H56.2108V119.458Z" fill="#315B7C"/>
<path d="M56.2108 126.48H52.7V129.991H56.2108V126.48Z" fill="#315B7C"/>
<path d="M59.7281 0H56.2173V7.03069H59.7281V0Z" fill="#315B7C"/>
<path d="M59.7281 21.083H56.2173V31.6245H59.7281V21.083Z" fill="#315B7C"/>
<path d="M59.7281 45.6768H56.2173V52.7074H59.7281V45.6768Z" fill="#315B7C"/>
<path d="M59.7281 56.2188H56.2173V63.2494H59.7281V56.2188Z" fill="#315B7C"/>
<path d="M59.7281 70.2705H56.2173V73.7813H59.7281V70.2705Z" fill="#315B7C"/>
<path d="M59.7281 77.292H56.2173V94.8642H59.7281V77.292Z" fill="#315B7C"/>
<path d="M59.7281 115.947H56.2173V130H59.7281V115.947Z" fill="#315B7C"/>
<path d="M63.2396 0H59.7288V7.03069H63.2396V0Z" fill="#315B7C"/>
<path d="M63.2396 10.541H59.7288V17.5717H63.2396V10.541Z" fill="#315B7C"/>
<path d="M63.2396 31.624H59.7288V35.1348H63.2396V31.624Z" fill="#315B7C"/>
<path d="M63.2396 38.6465H59.7288V42.1573H63.2396V38.6465Z" fill="#315B7C"/>
<path d="M63.2396 45.6768H59.7288V66.7598H63.2396V45.6768Z" fill="#315B7C"/>
<path d="M63.2396 70.2705H59.7288V73.7813H63.2396V70.2705Z" fill="#315B7C"/>
<path d="M63.2396 77.292H59.7288V87.8335H63.2396V77.292Z" fill="#315B7C"/>
<path d="M63.2396 108.916H59.7288V112.427H63.2396V108.916Z" fill="#315B7C"/>
<path d="M63.2396 119.458H59.7288V126.489H63.2396V119.458Z" fill="#315B7C"/>
<path d="M66.7508 3.51074H63.24V7.02157H66.7508V3.51074Z" fill="#315B7C"/>
<path d="M66.7508 10.541H63.24V24.5934H66.7508V10.541Z" fill="#315B7C"/>
<path d="M66.7508 28.1045H63.24V35.1352H66.7508V28.1045Z" fill="#315B7C"/>
<path d="M66.7508 45.6768H63.24V49.1876H66.7508V45.6768Z" fill="#315B7C"/>
<path d="M66.7508 52.6982H63.24V56.2091H66.7508V52.6982Z" fill="#315B7C"/>
<path d="M66.7508 59.7295H63.24V63.2403H66.7508V59.7295Z" fill="#315B7C"/>
<path d="M66.7508 66.751H63.24V70.2618H66.7508V66.751Z" fill="#315B7C"/>
<path d="M66.7508 73.7812H63.24V80.812H66.7508V73.7812Z" fill="#315B7C"/>
<path d="M66.7508 84.3232H63.24V87.8341H66.7508V84.3232Z" fill="#315B7C"/>
<path d="M66.7508 108.916H63.24V112.427H66.7508V108.916Z" fill="#315B7C"/>
<path d="M66.7508 115.947H63.24V119.458H66.7508V115.947Z" fill="#315B7C"/>
<path d="M66.7508 122.97H63.24V126.481H66.7508V122.97Z" fill="#315B7C"/>
<path d="M70.2708 0H66.76V10.5415H70.2708V0Z" fill="#315B7C"/>
<path d="M70.2708 14.0518H66.76V17.5626H70.2708V14.0518Z" fill="#315B7C"/>
<path d="M70.2708 24.5938H66.76V31.6244H70.2708V24.5938Z" fill="#315B7C"/>
<path d="M70.2708 49.1875H66.76V52.6983H70.2708V49.1875Z" fill="#315B7C"/>
<path d="M70.2708 59.7295H66.76V70.271H70.2708V59.7295Z" fill="#315B7C"/>
<path d="M70.2708 73.7812H66.76V77.2921H70.2708V73.7812Z" fill="#315B7C"/>
<path d="M70.2708 84.3232H66.76V87.8341H70.2708V84.3232Z" fill="#315B7C"/>
<path d="M70.2708 91.3447H66.76V98.3754H70.2708V91.3447Z" fill="#315B7C"/>
<path d="M70.2708 101.887H66.76V108.917H70.2708V101.887Z" fill="#315B7C"/>
<path d="M70.2708 115.947H66.76V119.458H70.2708V115.947Z" fill="#315B7C"/>
<path d="M70.2708 122.97H66.76V130H70.2708V122.97Z" fill="#315B7C"/>
<path d="M73.7821 7.02148H70.2712V10.5323H73.7821V7.02148Z" fill="#315B7C"/>
<path d="M73.7821 21.083H70.2712V31.6245H73.7821V21.083Z" fill="#315B7C"/>
<path d="M73.7821 38.6465H70.2712V42.1573H73.7821V38.6465Z" fill="#315B7C"/>
<path d="M73.7821 52.6982H70.2712V56.2091H73.7821V52.6982Z" fill="#315B7C"/>
<path d="M73.7821 63.2402H70.2712V66.7511H73.7821V63.2402Z" fill="#315B7C"/>
<path d="M73.7821 70.2705H70.2712V73.7813H73.7821V70.2705Z" fill="#315B7C"/>
<path d="M73.7821 84.3232H70.2712V87.8341H73.7821V84.3232Z" fill="#315B7C"/>
<path d="M73.7821 91.3447H70.2712V94.8556H73.7821V91.3447Z" fill="#315B7C"/>
<path d="M73.7821 98.375H70.2712V105.406H73.7821V98.375Z" fill="#315B7C"/>
<path d="M73.7821 119.458H70.2712V130H73.7821V119.458Z" fill="#315B7C"/>
<path d="M77.2909 0H73.78V14.0523H77.2909V0Z" fill="#315B7C"/>
<path d="M77.2909 35.1348H73.78V38.6456H77.2909V35.1348Z" fill="#315B7C"/>
<path d="M77.2909 45.6768H73.78V52.7074H77.2909V45.6768Z" fill="#315B7C"/>
<path d="M77.2909 59.7295H73.78V63.2403H77.2909V59.7295Z" fill="#315B7C"/>
<path d="M77.2909 105.405H73.78V108.916H77.2909V105.405Z" fill="#315B7C"/>
<path d="M77.2909 119.458H73.78V122.969H77.2909V119.458Z" fill="#315B7C"/>
<path d="M80.805 0H77.2942V3.51083H80.805V0Z" fill="#315B7C"/>
<path d="M80.805 14.0518H77.2942V17.5626H80.805V14.0518Z" fill="#315B7C"/>
<path d="M80.805 21.083H77.2942V24.5938H80.805V21.083Z" fill="#315B7C"/>
<path d="M80.805 28.1045H77.2942V31.6153H80.805V28.1045Z" fill="#315B7C"/>
<path d="M80.805 35.1348H77.2942V42.1655H80.805V35.1348Z" fill="#315B7C"/>
<path d="M80.805 56.2188H77.2942V59.7296H80.805V56.2188Z" fill="#315B7C"/>
<path d="M80.805 66.751H77.2942V70.2618H80.805V66.751Z" fill="#315B7C"/>
<path d="M80.805 80.8125H77.2942V84.3233H80.805V80.8125Z" fill="#315B7C"/>
<path d="M80.805 87.834H77.2942V105.406H80.805V87.834Z" fill="#315B7C"/>
<path d="M80.805 108.916H77.2942V122.968H80.805V108.916Z" fill="#315B7C"/>
<path d="M80.805 126.48H77.2942V129.991H80.805V126.48Z" fill="#315B7C"/>
<path d="M84.3253 10.541H80.8145V14.0518H84.3253V10.541Z" fill="#315B7C"/>
<path d="M84.3253 17.5625H80.8145V21.0733H84.3253V17.5625Z" fill="#315B7C"/>
<path d="M84.3253 24.5938H80.8145V38.6461H84.3253V24.5938Z" fill="#315B7C"/>
<path d="M84.3253 42.1562H80.8145V49.1869H84.3253V42.1562Z" fill="#315B7C"/>
<path d="M84.3253 63.2402H80.8145V66.7511H84.3253V63.2402Z" fill="#315B7C"/>
<path d="M84.3253 70.2705H80.8145V80.812H84.3253V70.2705Z" fill="#315B7C"/>
<path d="M84.3253 87.834H80.8145V91.3448H84.3253V87.834Z" fill="#315B7C"/>
<path d="M84.3253 98.375H80.8145V101.886H84.3253V98.375Z" fill="#315B7C"/>
<path d="M84.3253 105.405H80.8145V112.436H84.3253V105.405Z" fill="#315B7C"/>
<path d="M84.3253 115.947H80.8145V122.978H84.3253V115.947Z" fill="#315B7C"/>
<path d="M87.8336 3.51074H84.3228V10.5414H87.8336V3.51074Z" fill="#315B7C"/>
<path d="M87.8336 21.083H84.3228V24.5938H87.8336V21.083Z" fill="#315B7C"/>
<path d="M87.8336 28.1045H84.3228V31.6153H87.8336V28.1045Z" fill="#315B7C"/>
<path d="M87.8336 35.1348H84.3228V38.6456H87.8336V35.1348Z" fill="#315B7C"/>
<path d="M87.8336 42.1562H84.3228V49.1869H87.8336V42.1562Z" fill="#315B7C"/>
<path d="M87.8336 56.2188H84.3228V66.7603H87.8336V56.2188Z" fill="#315B7C"/>
<path d="M87.8336 70.2705H84.3228V73.7813H87.8336V70.2705Z" fill="#315B7C"/>
<path d="M87.8336 84.3232H84.3228V87.8341H87.8336V84.3232Z" fill="#315B7C"/>
<path d="M87.8336 94.8643H84.3228V101.895H87.8336V94.8643Z" fill="#315B7C"/>
<path d="M87.8336 108.916H84.3228V115.947H87.8336V108.916Z" fill="#315B7C"/>
<path d="M87.8336 119.458H84.3228V122.969H87.8336V119.458Z" fill="#315B7C"/>
<path d="M87.8336 126.48H84.3228V129.991H87.8336V126.48Z" fill="#315B7C"/>
<path d="M91.3419 7.02148H87.8311V21.0738H91.3419V7.02148Z" fill="#315B7C"/>
<path d="M91.3419 24.5938H87.8311V28.1046H91.3419V24.5938Z" fill="#315B7C"/>
<path d="M91.3419 35.1348H87.8311V38.6456H91.3419V35.1348Z" fill="#315B7C"/>
<path d="M91.3419 56.2188H87.8311V70.2711H91.3419V56.2188Z" fill="#315B7C"/>
<path d="M91.3419 87.834H87.8311V94.8647H91.3419V87.834Z" fill="#315B7C"/>
<path d="M91.3419 98.375H87.8311V101.886H91.3419V98.375Z" fill="#315B7C"/>
<path d="M91.3419 108.916H87.8311V112.427H91.3419V108.916Z" fill="#315B7C"/>
<path d="M91.3419 115.947H87.8311V122.978H91.3419V115.947Z" fill="#315B7C"/>
<path d="M94.8653 0H91.3545V3.51083H94.8653V0Z" fill="#315B7C"/>
<path d="M94.8653 7.02148H91.3545V10.5323H94.8653V7.02148Z" fill="#315B7C"/>
<path d="M94.8653 14.0518H91.3545V17.5626H94.8653V14.0518Z" fill="#315B7C"/>
<path d="M94.8653 21.083H91.3545V35.1354H94.8653V21.083Z" fill="#315B7C"/>
<path d="M94.8653 38.6465H91.3545V42.1573H94.8653V38.6465Z" fill="#315B7C"/>
<path d="M94.8653 45.6768H91.3545V52.7074H94.8653V45.6768Z" fill="#315B7C"/>
<path d="M94.8653 59.7295H91.3545V63.2403H94.8653V59.7295Z" fill="#315B7C"/>
<path d="M94.8653 66.751H91.3545V77.2925H94.8653V66.751Z" fill="#315B7C"/>
<path d="M94.8653 80.8125H91.3545V84.3233H94.8653V80.8125Z" fill="#315B7C"/>
<path d="M94.8653 91.3447H91.3545V94.8556H94.8653V91.3447Z" fill="#315B7C"/>
<path d="M94.8653 98.375H91.3545V101.886H94.8653V98.375Z" fill="#315B7C"/>
<path d="M94.8653 105.405H91.3545V119.458H94.8653V105.405Z" fill="#315B7C"/>
<path d="M98.3765 7.02148H94.8657V10.5323H98.3765V7.02148Z" fill="#315B7C"/>
<path d="M98.3765 24.5938H94.8657V28.1046H98.3765V24.5938Z" fill="#315B7C"/>
<path d="M98.3765 31.624H94.8657V70.2702H98.3765V31.624Z" fill="#315B7C"/>
<path d="M98.3765 73.7812H94.8657V84.3228H98.3765V73.7812Z" fill="#315B7C"/>
<path d="M98.3765 87.834H94.8657V101.886H98.3765V87.834Z" fill="#315B7C"/>
<path d="M98.3765 112.428H94.8657V122.969H98.3765V112.428Z" fill="#315B7C"/>
<path d="M101.885 7.02148H98.3743V17.563H101.885V7.02148Z" fill="#315B7C"/>
<path d="M101.885 21.083H98.3743V28.1137H101.885V21.083Z" fill="#315B7C"/>
<path d="M101.885 38.6465H98.3743V49.188H101.885V38.6465Z" fill="#315B7C"/>
<path d="M101.885 56.2188H98.3743V59.7296H101.885V56.2188Z" fill="#315B7C"/>
<path d="M101.885 66.751H98.3743V73.7817H101.885V66.751Z" fill="#315B7C"/>
<path d="M101.885 84.3232H98.3743V91.3539H101.885V84.3232Z" fill="#315B7C"/>
<path d="M101.885 94.8643H98.3743V122.969H101.885V94.8643Z" fill="#315B7C"/>
<path d="M101.885 126.48H98.3743V129.991H101.885V126.48Z" fill="#315B7C"/>
<path d="M105.397 28.1045H101.886V31.6153H105.397V28.1045Z" fill="#315B7C"/>
<path d="M105.397 35.1348H101.886V42.1655H105.397V35.1348Z" fill="#315B7C"/>
<path d="M105.397 49.1875H101.886V52.6983H105.397V49.1875Z" fill="#315B7C"/>
<path d="M105.397 59.7295H101.886V63.2403H105.397V59.7295Z" fill="#315B7C"/>
<path d="M105.397 70.2705H101.886V73.7813H105.397V70.2705Z" fill="#315B7C"/>
<path d="M105.397 77.292H101.886V87.8335H105.397V77.292Z" fill="#315B7C"/>
<path d="M105.397 94.8643H101.886V101.895H105.397V94.8643Z" fill="#315B7C"/>
<path d="M105.397 112.428H101.886V119.458H105.397V112.428Z" fill="#315B7C"/>
<path d="M105.397 126.48H101.886V129.991H105.397V126.48Z" fill="#315B7C"/>
<path d="M108.919 0H105.408V24.5939H108.919V0Z" fill="#315B7C"/>
<path d="M108.919 35.1348H105.408V45.6763H108.919V35.1348Z" fill="#315B7C"/>
<path d="M108.919 49.1875H105.408V52.6983H108.919V49.1875Z" fill="#315B7C"/>
<path d="M108.919 56.2188H105.408V59.7296H108.919V56.2188Z" fill="#315B7C"/>
<path d="M108.919 66.751H105.408V73.7817H108.919V66.751Z" fill="#315B7C"/>
<path d="M108.919 77.292H105.408V80.8028H108.919V77.292Z" fill="#315B7C"/>
<path d="M108.919 84.3232H105.408V87.8341H108.919V84.3232Z" fill="#315B7C"/>
<path d="M108.919 91.3447H105.408V101.886H108.919V91.3447Z" fill="#315B7C"/>
<path d="M108.919 105.405H105.408V108.916H108.919V105.405Z" fill="#315B7C"/>
<path d="M108.919 112.428H105.408V119.458H108.919V112.428Z" fill="#315B7C"/>
<path d="M112.428 0H108.917V3.51083H112.428V0Z" fill="#315B7C"/>
<path d="M112.428 21.083H108.917V24.5938H112.428V21.083Z" fill="#315B7C"/>
<path d="M112.428 31.624H108.917V38.6547H112.428V31.624Z" fill="#315B7C"/>
<path d="M112.428 52.6982H108.917V56.2091H112.428V52.6982Z" fill="#315B7C"/>
<path d="M112.428 59.7295H108.917V73.7818H112.428V59.7295Z" fill="#315B7C"/>
<path d="M112.428 77.292H108.917V87.8335H112.428V77.292Z" fill="#315B7C"/>
<path d="M112.428 91.3447H108.917V101.886H112.428V91.3447Z" fill="#315B7C"/>
<path d="M112.428 112.428H108.917V115.939H112.428V112.428Z" fill="#315B7C"/>
<path d="M112.428 126.48H108.917V129.991H112.428V126.48Z" fill="#315B7C"/>
<path d="M115.94 0H112.429V3.51083H115.94V0Z" fill="#315B7C"/>
<path d="M115.94 7.02148H112.429V17.563H115.94V7.02148Z" fill="#315B7C"/>
<path d="M115.94 21.083H112.429V24.5938H115.94V21.083Z" fill="#315B7C"/>
<path d="M115.94 28.1045H112.429V35.1352H115.94V28.1045Z" fill="#315B7C"/>
<path d="M115.94 45.6768H112.429V52.7074H115.94V45.6768Z" fill="#315B7C"/>
<path d="M115.94 63.2402H112.429V66.7511H115.94V63.2402Z" fill="#315B7C"/>
<path d="M115.94 70.2705H112.429V77.3012H115.94V70.2705Z" fill="#315B7C"/>
<path d="M115.94 80.8125H112.429V84.3233H115.94V80.8125Z" fill="#315B7C"/>
<path d="M115.94 87.834H112.429V94.8647H115.94V87.834Z" fill="#315B7C"/>
<path d="M115.94 98.375H112.429V115.947H115.94V98.375Z" fill="#315B7C"/>
<path d="M115.94 119.458H112.429V126.489H115.94V119.458Z" fill="#315B7C"/>
<path d="M119.456 0H115.946V3.51083H119.456V0Z" fill="#315B7C"/>
<path d="M119.456 7.02148H115.946V17.563H119.456V7.02148Z" fill="#315B7C"/>
<path d="M119.456 21.083H115.946V24.5938H119.456V21.083Z" fill="#315B7C"/>
<path d="M119.456 31.624H115.946V38.6547H119.456V31.624Z" fill="#315B7C"/>
<path d="M119.456 45.6768H115.946V56.2183H119.456V45.6768Z" fill="#315B7C"/>
<path d="M119.456 59.7295H115.946V63.2403H119.456V59.7295Z" fill="#315B7C"/>
<path d="M119.456 66.751H115.946V70.2618H119.456V66.751Z" fill="#315B7C"/>
<path d="M119.456 77.292H115.946V84.3227H119.456V77.292Z" fill="#315B7C"/>
<path d="M119.456 91.3447H115.946V98.3754H119.456V91.3447Z" fill="#315B7C"/>
<path d="M119.456 115.947H115.946V119.458H119.456V115.947Z" fill="#315B7C"/>
<path d="M119.456 126.48H115.946V129.991H119.456V126.48Z" fill="#315B7C"/>
<path d="M122.971 0H119.46V3.51083H122.971V0Z" fill="#315B7C"/>
<path d="M122.971 7.02148H119.46V17.563H122.971V7.02148Z" fill="#315B7C"/>
<path d="M122.971 21.083H119.46V24.5938H122.971V21.083Z" fill="#315B7C"/>
<path d="M122.971 28.1045H119.46V35.1352H122.971V28.1045Z" fill="#315B7C"/>
<path d="M122.971 38.6465H119.46V42.1573H122.971V38.6465Z" fill="#315B7C"/>
<path d="M122.971 49.1875H119.46V59.729H122.971V49.1875Z" fill="#315B7C"/>
<path d="M122.971 63.2402H119.46V66.7511H122.971V63.2402Z" fill="#315B7C"/>
<path d="M122.971 73.7812H119.46V77.2921H122.971V73.7812Z" fill="#315B7C"/>
<path d="M122.971 80.8125H119.46V84.3233H122.971V80.8125Z" fill="#315B7C"/>
<path d="M122.971 94.8643H119.46V105.406H122.971V94.8643Z" fill="#315B7C"/>
<path d="M122.971 115.947H119.46V119.458H122.971V115.947Z" fill="#315B7C"/>
<path d="M122.971 122.97H119.46V126.481H122.971V122.97Z" fill="#315B7C"/>
<path d="M126.479 0H122.968V3.51083H126.479V0Z" fill="#315B7C"/>
<path d="M126.479 21.083H122.968V24.5938H126.479V21.083Z" fill="#315B7C"/>
<path d="M126.479 28.1045H122.968V35.1352H126.479V28.1045Z" fill="#315B7C"/>
<path d="M126.479 38.6465H122.968V42.1573H126.479V38.6465Z" fill="#315B7C"/>
<path d="M126.479 49.1875H122.968V59.729H126.479V49.1875Z" fill="#315B7C"/>
<path d="M126.479 91.3447H122.968V98.3754H126.479V91.3447Z" fill="#315B7C"/>
<path d="M126.479 105.405H122.968V112.436H126.479V105.405Z" fill="#315B7C"/>
<path d="M126.479 122.97H122.968V126.481H126.479V122.97Z" fill="#315B7C"/>
<path d="M129.991 0H126.48V24.5939H129.991V0Z" fill="#315B7C"/>
<path d="M129.991 28.1045H126.48V31.6153H129.991V28.1045Z" fill="#315B7C"/>
<path d="M129.991 35.1348H126.48V45.6763H129.991V35.1348Z" fill="#315B7C"/>
<path d="M129.991 49.1875H126.48V56.2182H129.991V49.1875Z" fill="#315B7C"/>
<path d="M129.991 63.2402H126.48V70.2709H129.991V63.2402Z" fill="#315B7C"/>
<path d="M129.991 77.292H126.48V80.8028H129.991V77.292Z" fill="#315B7C"/>
<path d="M129.991 91.3447H126.48V98.3754H129.991V91.3447Z" fill="#315B7C"/>
<path d="M129.991 105.405H126.48V108.916H129.991V105.405Z" fill="#315B7C"/>
<path d="M129.991 112.428H126.48V130H129.991V112.428Z" fill="#315B7C"/>
</g>
<defs>
<clipPath id="clip0_5091_696">
<rect width="130" height="130" fill="white"/>
</clipPath>
</defs>
</svg>
