<svg width="35" height="35" viewBox="0 0 35 35" fill="none" xmlns="http://www.w3.org/2000/svg">
<path d="M21.3105 8.68066V14.6711L23.4062 15.9891C23.4818 16.0057 23.5602 16.0057 23.6359 15.9891L32.6462 9.91441C32.6396 9.61959 32.5317 9.33602 32.3407 9.11135C32.1497 8.88668 31.8872 8.7346 31.5973 8.68066H21.3105Z" fill="white"/>
<path d="M21.3105 16.9056L23.2213 18.2181C23.3108 18.2726 23.4135 18.3014 23.5182 18.3014C23.623 18.3014 23.7257 18.2726 23.8152 18.2181C23.4871 18.4161 32.645 12.3359 32.645 12.3359V23.3456C32.6689 23.5687 32.6438 23.7943 32.5713 24.0067C32.4989 24.219 32.381 24.413 32.2257 24.575C32.0705 24.737 31.8817 24.8631 31.6727 24.9446C31.4636 25.026 31.2393 25.0607 31.0154 25.0464H21.3094V16.9056H21.3105ZM11.4186 14.1439C11.1012 14.1424 10.7892 14.2268 10.5157 14.3881C10.2423 14.5495 10.0176 14.7818 9.86551 15.0605C9.45001 15.7992 9.25065 16.6398 9.2902 17.4864C9.24702 18.3313 9.44666 19.1708 9.86551 19.9058C10.017 20.173 10.2362 20.3956 10.5009 20.5513C10.7657 20.7069 11.0668 20.7902 11.374 20.7926C11.6811 20.795 11.9835 20.7166 12.2507 20.5652C12.5179 20.4137 12.7406 20.1946 12.8963 19.9298C13.3106 19.1982 13.5061 18.3631 13.4596 17.5236C13.507 16.6578 13.318 15.7953 12.9127 15.0287C12.7679 14.7592 12.5522 14.5343 12.2889 14.3783C12.0255 14.2224 11.7246 14.1413 11.4186 14.1439Z" fill="white"/>
<path d="M2.35474 5.63828V29.0741L20.1829 32.8125V2.1875L2.35474 5.63828ZM14.2854 21.3183C13.9519 21.7884 13.5084 22.1699 12.9937 22.4293C12.4789 22.6888 11.9086 22.8184 11.3322 22.8069C10.7704 22.8169 10.2145 22.691 9.71179 22.44C9.20906 22.189 8.77439 21.8203 8.44474 21.3653C7.66291 20.2738 7.2718 18.9506 7.33458 17.6094C7.26807 16.2024 7.66625 14.8127 8.4677 13.6544C8.80542 13.1752 9.25583 12.7865 9.77922 12.5226C10.3026 12.2586 10.8829 12.1274 11.469 12.1406C12.0267 12.1294 12.5787 12.2553 13.0764 12.5072C13.5741 12.7592 14.0024 13.1294 14.3236 13.5855C15.0977 14.7007 15.4821 16.0401 15.4174 17.3961C15.4856 18.7929 15.0873 20.1727 14.2854 21.3183Z" fill="white"/>
</svg>
