<svg width="35" height="35" viewBox="0 0 35 35" fill="none" xmlns="http://www.w3.org/2000/svg">
<path d="M29.5865 14.6575C30.9614 14.6575 32.0759 13.5429 32.0759 12.1681C32.0759 10.7932 30.9614 9.67871 29.5865 9.67871C28.2117 9.67871 27.0972 10.7932 27.0972 12.1681C27.0972 13.5429 28.2117 14.6575 29.5865 14.6575Z" fill="white"/>
<path d="M27.0974 16.7901H32.0747V22.1218C32.0747 23.4955 30.9591 24.6097 29.5853 24.6097H27.0974V16.7901ZM2.92554 6.1253V28.8753L19.2778 31.7613V3.23926L2.92554 6.1253ZM15.0122 14.0163L12.1685 14.0878V22.4761H10.0349V14.2293L7.19262 14.3722V12.453L15.0122 12.0272V14.0163ZM20.6982 14.6566V26.7432H23.542C24.7203 26.7432 25.6755 25.788 25.6755 24.6111V14.6566H20.6982ZM22.8318 7.54717C21.9772 7.54717 21.2203 7.93217 20.6982 8.52863V12.2547C21.2189 12.8511 21.9772 13.2361 22.8318 13.2361C23.5862 13.2361 24.3097 12.9364 24.8431 12.403C25.3766 11.8696 25.6763 11.1461 25.6763 10.3917C25.6763 9.63725 25.3766 8.91375 24.8431 8.3803C24.3097 7.84686 23.5862 7.54717 22.8318 7.54717Z" fill="white"/>
</svg>
