<svg width="50" height="31" viewBox="0 0 50 31" fill="none" xmlns="http://www.w3.org/2000/svg">
<path fill-rule="evenodd" clip-rule="evenodd" d="M8.83564 0.713867V9.84711H6.41723V6.42198H2.43194V9.84711H0V0.713867H2.43194V4.38101H6.41723V0.713867H8.83564Z" fill="#003865"/>
<path fill-rule="evenodd" clip-rule="evenodd" d="M35.5896 9.84711H33.2639V5.26765L31.1866 8.39636V8.40986H29.8938V8.39636L27.8031 5.24023L27.8165 9.84711H25.4917V0.713867H27.2249L30.5406 5.58975L33.8559 0.713867H35.5896V9.84711Z" fill="#003865"/>
<path fill-rule="evenodd" clip-rule="evenodd" d="M39.6218 2.68825V4.35402H43.7017V6.28836H39.6218V7.87273H44.2821V9.84711H37.3398V0.713867H44.2821V2.68825H39.6218Z" fill="#003865"/>
<path fill-rule="evenodd" clip-rule="evenodd" d="M17.2347 0C13.4668 0 10.4121 2.92419 10.4121 6.53344C10.4121 7.80589 10.7926 8.99391 11.4496 9.998H14.7403C13.741 9.23809 13.0927 8.03638 13.0927 6.67994C13.0927 4.38057 14.9469 2.51662 17.2338 2.51662C19.5216 2.51662 21.3759 4.38057 21.3759 6.67994C21.3759 8.03638 20.7275 9.23809 19.7282 9.998H23.019C23.6764 8.99391 24.0555 7.80589 24.0555 6.53344C24.0555 2.92419 21.0027 0 17.2347 0Z" fill="#003865"/>
<path fill-rule="evenodd" clip-rule="evenodd" d="M14.875 7.41113C15.1919 8.47448 16.0607 9.23778 17.0841 9.23778C18.1076 9.23778 18.9768 8.47448 19.2928 7.41113H14.875Z" fill="#003865"/>
<path fill-rule="evenodd" clip-rule="evenodd" d="M12.959 15.892H14.7066C15.6155 15.892 16.3287 15.4146 16.3287 14.6715C16.3287 13.9422 15.6155 13.478 14.7066 13.478H12.959V15.892ZM16.5661 20.5206L14.7632 17.9072H14.7483H12.959V20.5206H10.5952V11.502H14.7483C17.1112 11.502 18.6907 12.7225 18.6907 14.6715C18.6907 15.8525 18.0899 16.8061 17.084 17.3635L19.32 20.5206H16.5661Z" fill="#003865"/>
<path fill-rule="evenodd" clip-rule="evenodd" d="M22.8208 13.4519V15.0963H26.849V17.0062H22.8208V18.5707H27.4221V20.5206H20.5669V11.502H27.4221V13.4519H22.8208Z" fill="#003865"/>
<path fill-rule="evenodd" clip-rule="evenodd" d="M35.0621 15.9853C35.0621 14.592 33.9033 13.5184 32.3907 13.5184H30.9722V18.5041H32.3907C33.9033 18.5041 35.0621 17.4173 35.0621 15.9853ZM37.3933 15.9853C37.3933 18.6636 35.3081 20.5206 32.3907 20.5206H28.6685V11.502H32.3907C35.3081 11.502 37.3933 13.3452 37.3933 15.9853Z" fill="#003865"/>
<path fill-rule="evenodd" clip-rule="evenodd" d="M38.7812 20.5206H41.2741V11.502H38.7812V20.5206Z" fill="#003865"/>
<path fill-rule="evenodd" clip-rule="evenodd" d="M49.9999 13.5048H47.3861V20.5206H45.1349V13.5048H42.5215V11.502H49.9999V13.5048Z" fill="#003865"/>
<path fill-rule="evenodd" clip-rule="evenodd" d="M6.93847 17.2285C6.58727 18.0291 5.85477 18.5026 4.83215 18.5026C3.33835 18.5026 2.30133 17.4557 2.30133 16.0119C2.30133 14.5676 3.33835 13.5208 4.83215 13.5208C5.85477 13.5208 6.58727 13.9952 6.93847 14.7949H9.348C8.87508 12.8109 7.15573 11.502 4.84655 11.502C2.08582 11.502 0 13.3929 0 16.0119C0 18.6305 2.08582 20.5206 4.84655 20.5206C7.1566 20.5206 8.87508 19.2125 9.348 17.2285H6.93847Z" fill="#003865"/>
<path fill-rule="evenodd" clip-rule="evenodd" d="M5.83436 28.1951C5.83436 27.6363 5.35011 27.317 4.4771 27.317H2.3419V29.1389H4.43495C5.40525 29.1389 5.83436 28.7268 5.83436 28.1951ZM2.3419 23.7942V25.6819H4.10315C4.98916 25.6819 5.47431 25.2569 5.47431 24.6718C5.47431 24.0996 5.00306 23.7942 4.10315 23.7942H2.3419ZM8.12201 28.4876C8.12201 29.9898 6.85981 31.0004 4.74075 31.0004H0V21.959H4.46276C6.51411 21.959 7.7059 22.8895 7.7059 24.3655C7.7059 25.2031 7.21987 26.0678 6.40336 26.3465C7.55346 26.5857 8.12201 27.5162 8.12201 28.4876Z" fill="#003865"/>
<path fill-rule="evenodd" clip-rule="evenodd" d="M14.9442 27.5696L13.7397 24.5251L12.5361 27.5696H14.9442ZM15.6878 29.4444H11.7925L11.1828 31.0004H8.74854L12.6573 21.959H14.8492L18.7449 31.0004H16.3101L15.6878 29.4444Z" fill="#003865"/>
<path fill-rule="evenodd" clip-rule="evenodd" d="M28.113 21.959V31.0004H26.2926L21.7309 26.0407V31.0004H19.3662V21.959H21.1712L25.7624 27.0512V21.959H28.113Z" fill="#003865"/>
<path fill-rule="evenodd" clip-rule="evenodd" d="M33.7992 27.6238L32.3839 29.1647V31.0004H29.9907V21.959H32.3839V26.1073L36.2198 21.959H39.0513L35.3853 25.9215L39.3623 31.0004H36.3764L33.7992 27.6238Z" fill="#003865"/>
</svg>
