<svg width="122" height="15" viewBox="0 0 122 15" fill="none" xmlns="http://www.w3.org/2000/svg">
<path d="M5.95148 6.8032V4.39844H7.00621V10.6306H5.95148V8.4163V7.9163H5.45148H2.06758H1.56758V8.4163V10.6306H0.5V4.39844H1.56758V6.8032V7.3032H2.06758H5.45148H5.95148V6.8032Z" fill="#003865" stroke="#003865"/>
<path d="M27.852 7.21528L26.2273 9.49368H25.6617L24.0241 7.19192L23.1112 5.90869L23.1167 7.48353L23.1278 10.6306H22.1519V4.39844H22.8682L25.5372 8.05626L25.9411 8.60979L26.345 8.05626L29.0141 4.39844H29.7304V10.6306H28.7591V7.50558V5.94325L27.852 7.21528Z" fill="#003865" stroke="#003865"/>
<path d="M33.6586 4.96391H33.1586V5.46391V6.78534V7.28534H33.6586H36.626V7.8151H33.6586H33.1586V8.3151V9.57106V10.0711H33.6586H37.1204V10.6365H32.2195V4.39844H37.114V4.96391H33.6586Z" fill="#003865" stroke="#003865"/>
<path d="M19.9251 8.5045V8.50563C19.9251 9.31519 19.6924 10.0796 19.2766 10.7497H17.9589C18.3936 10.1464 18.6521 9.41606 18.6521 8.62467C18.6521 6.49721 16.8242 4.82706 14.6333 4.82706C12.4425 4.82706 10.6146 6.49721 10.6146 8.62467C10.6146 9.41606 10.8731 10.1464 11.3078 10.7497H9.99012C9.5743 10.0796 9.34155 9.31519 9.34155 8.50563C9.34155 5.97704 11.6627 3.83301 14.6398 3.83301C17.6164 3.83301 19.9308 5.9764 19.9251 8.5045ZM16.7523 11.2497H17.5293L17.3168 10.7497C17.1487 10.935 16.9593 11.1028 16.7523 11.2497Z" fill="#003865" stroke="#003865"/>
<path d="M14.5107 10.1486C14.1293 10.1486 13.7686 9.98319 13.4979 9.70215H15.5235C15.2528 9.98319 14.8921 10.1486 14.5107 10.1486Z" fill="#003865" stroke="#003865"/>
<path d="M52.0831 7.37463V7.87463H52.5831H54.0664C54.5274 7.87463 54.9762 7.76161 55.3256 7.5255C55.6838 7.28339 55.9469 6.89939 55.9469 6.41034C55.9469 5.92282 55.6838 5.54226 55.3243 5.30388C54.975 5.07227 54.5269 4.96391 54.0664 4.96391H52.5831H52.0831V5.46391V7.37463ZM52.0767 8.96987V10.5413H51.0669V4.39844H54.0921C55.0237 4.39844 55.7472 4.62268 56.2241 4.97584C56.6866 5.31841 56.9439 5.79887 56.9439 6.41034C56.9439 7.13643 56.561 7.73138 55.8483 8.09622L55.3167 8.36841L55.6781 8.8439L56.9686 10.5413H55.8978L54.5131 8.67222L54.3632 8.46987H54.1113H54.0985H52.5767H52.0767V8.96987Z" fill="#003865" stroke="#003865"/>
<path d="M60.455 6.74377V7.24377H60.955H63.8774V7.75567H60.955H60.455V8.25567V9.49377V9.99377H60.955H64.3654V10.5354H59.5415V4.39258H64.3654V4.93424H60.955H60.455V5.43424V5.4402V6.74377Z" fill="#003865" stroke="#003865"/>
<path d="M69.0836 9.9402C70.5842 9.94661 71.8513 8.91627 71.8513 7.44615C71.8513 6.00215 70.5733 4.99377 69.0847 4.99377H67.8775H67.3775V5.49377V9.4402V9.9402H67.8775H69.0836ZM69.0836 9.9402C69.0832 9.9402 69.0828 9.94019 69.0824 9.94019L69.0847 9.4402M69.0836 9.9402H69.0847V9.4402M69.0847 9.4402H68.3775H67.8775V8.9402V5.99377V5.49377H68.3775H69.0847C70.3689 5.49377 71.3513 6.34496 71.3513 7.44615C71.3513 8.58305 70.3689 9.44615 69.0847 9.4402ZM72.8354 7.44615C72.8354 8.3555 72.4596 9.11355 71.8179 9.65259C71.1701 10.1968 70.2275 10.5354 69.0847 10.5354H66.4255V4.39258H69.0841C71.3777 4.39831 72.8354 5.71569 72.8354 7.44615Z" fill="#003865" stroke="#003865"/>
<path d="M76.1348 4.39844V10.5413H75.0159V4.39844H76.1348Z" fill="#003865" stroke="#003865"/>
<path d="M81.8224 4.98177H81.3224V5.48177V10.5353H80.4089V5.48177V4.98177H79.9089H78.1873V4.39844H83.5377V4.98177H81.8224Z" fill="#003865" stroke="#003865"/>
<path d="M45.6734 9.9401C46.5758 9.9401 47.3228 9.59435 47.7575 8.93415H48.7855C48.2657 9.90125 47.1712 10.5413 45.6862 10.5413C43.546 10.5413 42.0703 9.1977 42.0703 7.46987C42.0703 5.74204 43.546 4.39844 45.6862 4.39844C47.1712 4.39844 48.2657 5.03848 48.7855 6.00558H47.7542C47.3171 5.35274 46.5748 4.99963 45.6734 4.99963C44.9286 4.99963 44.2646 5.2432 43.7819 5.68877C43.2968 6.13657 43.0223 6.76405 43.0223 7.46987C43.0223 8.17568 43.2968 8.80316 43.7819 9.25096C44.2646 9.69653 44.9286 9.9401 45.6734 9.9401Z" fill="#003865" stroke="#003865"/>
<path d="M90.5555 7.64248H90.0555V8.14248V9.58296V10.083H90.5555H92.3341C92.8017 10.083 93.2119 9.99131 93.5201 9.77882C93.8482 9.55256 94.022 9.2134 94.022 8.83891C94.022 8.43196 93.8175 8.10154 93.4831 7.89827C93.177 7.71215 92.7836 7.64248 92.3662 7.64248H90.5555ZM90.5491 4.85082H90.0491V5.35082V6.84487V7.34487H90.5491H92.0452C92.4891 7.34487 92.8933 7.24544 93.2009 7.02318C93.5222 6.79092 93.7074 6.44339 93.7074 6.04725C93.7074 5.64309 93.5137 5.3078 93.1709 5.10116C92.863 4.91555 92.4661 4.85082 92.0452 4.85082H90.5491ZM92.5909 10.5592H89.0649V4.39844H92.3534C93.1616 4.39844 93.7374 4.57111 94.0962 4.82271C94.4358 5.06089 94.608 5.38533 94.608 5.8032C94.608 6.27812 94.3086 6.74922 93.8485 6.89927L92.0176 7.49647L93.9078 7.86537C94.6362 8.00753 94.9612 8.5232 94.9612 9.07106C94.9612 9.49621 94.7783 9.84413 94.4117 10.1032C94.0292 10.3734 93.4236 10.5592 92.5909 10.5592Z" fill="#003865" stroke="#003865"/>
<path d="M101.261 8.83891H102.016L101.721 8.14393L100.7 5.73321L100.24 4.64606L99.7795 5.73321L98.7586 8.14393L98.4642 8.83891H99.219H101.261ZM102.35 9.63053L102.22 9.32701H101.89H98.5833H98.2516L98.1226 9.63256L97.7315 10.5592H96.7785L99.6346 4.39844H100.858L103.703 10.5592H102.747L102.35 9.63053Z" fill="#003865" stroke="#003865"/>
<path d="M110.941 7.9282V4.39844H111.945V10.5592H111.106L107.375 6.77931L106.519 5.9124V7.13058V10.5592H105.509V4.39844H106.332L110.082 8.27581L110.941 9.16435V7.9282Z" fill="#003865" stroke="#003865"/>
<path d="M117.661 8.06966L117.308 7.63909L116.918 8.03584L115.717 9.25608L115.573 9.40202V9.60677V10.5592H114.538V4.39844H115.573V7.18415V8.3992L116.428 7.53607L119.537 4.39844H120.536L118.268 6.68307L117.946 7.00709L118.239 7.3568L120.927 10.5592H119.7L117.661 8.06966Z" fill="#003865" stroke="#003865"/>
</svg>
