<svg width="25" height="25" viewBox="0 0 25 25" fill="none" xmlns="http://www.w3.org/2000/svg">
<path fill-rule="evenodd" clip-rule="evenodd" d="M0 10.233C0 15.8845 4.58144 20.466 10.2329 20.466C15.8816 20.4591 20.459 15.8817 20.4659 10.233C20.4659 4.58147 15.8844 0 10.2329 0C4.58144 0 0 4.58147 0 10.233ZM2.27344 10.2332C2.27344 5.83759 5.83678 2.27422 10.2324 2.27422C14.6259 2.27923 18.1863 5.83967 18.1913 10.2332C18.1913 14.6289 14.628 18.1922 10.2324 18.1922C5.83678 18.1922 2.27344 14.6289 2.27344 10.2332Z" fill="#B1C2CF"/>
<path opacity="0.5" d="M6.82184 10.2319H4.54785C4.55161 7.0937 7.09465 4.55063 10.2328 4.54688V6.82088C8.34898 6.82088 6.82184 8.34804 6.82184 10.2319Z" fill="#B1C2CF"/>
<path d="M24.6811 23.0735L19.8421 18.2344C19.3562 18.8181 18.8181 19.3562 18.2344 19.8421L23.0734 24.6812C23.5195 25.1121 24.2287 25.1059 24.6673 24.6673C25.1058 24.2287 25.112 23.5196 24.6811 23.0735Z" fill="#B1C2CF"/>
</svg>
